<?xml version="1.0" encoding="utf-8"?>
<!DOCTYPE svg PUBLIC "-//W3C//DTD SVG 1.1//EN" "http://www.w3.org/Graphics/SVG/1.1/DTD/svg11.dtd">
<!--
Color palette:
Colors from dark (background) to light (foreground):
#004c6d for data-z-index="0"
#006e93 for data-z-index="1"
#0093b9 for data-z-index="2"    
#00badd for data-z-index="3"
#00e2ff for data-z-index="4"

* The overall page is of the size 2480 × 3508 pixels (i.e. A4 page at 300 dpi)
* The margin is always 120 pixels (this corresponds to approx. 1cm) to the left and right; this only applies to normal panels, not background panels
* The margin is always 180 pixels (this corresponds to approx. 1.5cm) to the top and bottom; this only applies to background panels
* The gutter (the space between foreground panels, horizontally and vertically) is always 50 pixels
--><svg height="3508" version="1.1" viewBox="0, 0, 2480, 3508" width="2480" x="0" xmlns="http://www.w3.org/2000/svg" xmlns:xlink="http://www.w3.org/1999/xlink" y="0">
<desc>
    Page template for a single page with a background panel that takes up about 40% of the page.
    The background panel is partially covered, used for atmosphere and should not contain any characters or objects.
    The 7 foreground panels are the main content of the page and can contain characters and objects.
    The foreground panels are of equal width and height.
  </desc>
<rect data-role="page-background" data-z-index="0" fill="#FFFFFF" height="3508" width="2480" x="0" y="0"/>
<rect data-info="half-page background panel for atmosphere; do not use characters objects as it is partially covered by further panels" data-role="panel" data-z-index="1" fill="#004c6d" height="1440" id="background_panel" width="2480" x="0" y="0"/>
<!-- first row of panels -->
<rect data-info="1st panel; top row; first panel from the left" data-role="panel" data-z-index="2" fill="#006e93" height="750" id="panel_1" width="1095" x="120" y="980"/>
<path d="M 120.0,980.0 C 187.6019919708192,976.8237311469888 183.72090894789704,979.5929166259874 256.875,980.0 C 321.04952612390076,975.6484197129016 329.2314183947472,976.8695881247032 393.75,980.0 C 466.4339658860989,977.8678653131904 464.7434367524858,983.3911123644633 530.625,980.0 C 603.5100004133063,976.9612348616365 603.9622038363026,982.0797316221871 667.5,980.0 C 738.4679016089394,985.0483032551734 733.2948922920706,983.959865913349 804.375,980.0 C 867.8612482934109,975.4842129050847 871.614230704745,979.7632054675441 941.25,980.0 C 1007.587301735061,978.5437569035994 1010.7435192578185,983.3447780533658 1078.125,980.0 C 1141.4358981149844,977.5136069800228 1144.2547739373827,985.0938792617366 1215.0,980.0 C 1209.7115523857497,1023.9499571105931 1216.0660450693458,1026.0736441836627 1215.0,1073.75 C 1211.7592173804571,1122.6554963584751 1216.9905163468625,1116.573290458652 1215.0,1167.5 C 1214.8767708359858,1211.4427543094887 1211.0053435258285,1213.4109291289537 1215.0,1261.25 C 1210.1930805054942,1308.0852104581195 1217.9522635352878,1312.3499671634454 1215.0,1355.0 C 1216.7524710081243,1398.0734758422393 1213.7603329959632,1403.1844032558638 1215.0,1448.75 C 1219.9744123417088,1499.4721571157065 1216.7717554381088,1495.7989844666513 1215.0,1542.5 C 1212.346251333905,1584.0445444398088 1209.8694673530347,1591.9380289376418 1215.0,1636.25 C 1212.7715765066844,1685.996074441349 1210.0378067931074,1677.8256566083294 1215.0,1730.0 C 1141.8799552624116,1729.7250359966433 1141.8787849670045,1727.233332905848 1078.125,1730.0 C 1012.6154692321974,1730.7113821450782 1014.8741186038609,1731.691766533439 941.25,1730.0 C 877.6179571521817,1734.103722946922 867.3951549654827,1735.3670975294317 804.375,1730.0 C 734.5392208458892,1729.0952731653063 732.327591924554,1731.1057589236757 667.5,1730.0 C 603.7467785123833,1730.6446504210273 599.7613188569713,1726.7569491793768 530.625,1730.0 C 457.46606962375137,1732.8248375246485 461.0554442312307,1725.7977719752168 393.75,1730.0 C 330.60597001272595,1734.9419933347367 326.03592107256173,1730.8818417487325 256.875,1730.0 C 188.28306460588348,1729.2638075262632 191.4405213881203,1727.82610546667 120.0,1730.0 C 114.94069378524156,1685.0214050215932 122.74913281190747,1682.7745591855585 120.0,1636.25 C 121.87480234881221,1591.7285963317595 115.43040814897788,1585.9888607972337 120.0,1542.5 C 124.46245747899377,1498.4680053793036 118.33798818022134,1493.4512588233326 120.0,1448.75 C 124.03823712113264,1402.8583946151193 117.93274193338583,1406.343953933229 120.0,1355.0 C 117.22273233107813,1302.8320536440053 120.84652211953268,1308.8861164871357 120.0,1261.25 C 123.28377359894826,1215.7594869566 114.51992518773511,1212.3330840426265 120.0,1167.5 C 117.18652518715422,1118.8620239601114 116.27687646327156,1117.6842742547485 120.0,1073.75 C 115.99097614696346,1023.9725300928848 120.08947446123355,1026.0280407083585 120.0,980.0 Z" fill="none" stroke="black" stroke-width="5"/><rect data-info="2nd panel; top row; second panel from the left" data-role="panel" data-z-index="2" fill="#006e93" height="750" id="panel_2" width="1095" x="1265" y="980"/>
<path d="M 1265.0,980.0 C 1333.6441319147523,983.8452899095334 1333.438541451721,984.9891022229704 1401.875,980.0 C 1468.6476144466608,984.9999516028487 1473.421017043476,982.5234580531239 1538.75,980.0 C 1603.9623408872594,979.8062607429856 1607.0673350036186,983.6306180498726 1675.625,980.0 C 1747.4362502951208,980.0556937393724 1740.182719899561,979.3024929812981 1812.5,980.0 C 1881.5848503230513,980.8405331303454 1880.8973544928276,978.6650675452943 1949.375,980.0 C 2014.1847933503013,982.9977488065755 2019.2603981905643,979.6140833633611 2086.25,980.0 C 2155.240961342359,984.0759391819707 2159.5432771690184,982.2336232977551 2223.125,980.0 C 2289.2385985808696,975.8097323717449 2296.778919612601,975.117503370364 2360.0,980.0 C 2363.8431406771324,1029.285903080343 2360.7450134907103,1027.5587735561674 2360.0,1073.75 C 2355.0340061009356,1115.1306128974795 2355.0314043651438,1116.0899468714204 2360.0,1167.5 C 2356.0678413019004,1209.0963349328945 2363.768086781519,1215.3999429289681 2360.0,1261.25 C 2364.042594848354,1307.3357556968326 2364.6430060563475,1305.6749552261397 2360.0,1355.0 C 2359.663785766294,1399.3958180167847 2364.9711942791528,1402.3124854206392 2360.0,1448.75 C 2361.26972542384,1495.3320629363718 2363.316602690363,1497.1138946660142 2360.0,1542.5 C 2357.1283403473135,1588.4660944491554 2360.4477017944714,1590.6779988863095 2360.0,1636.25 C 2354.903311027235,1681.7570580365716 2359.1403254982974,1678.1434432630551 2360.0,1730.0 C 2296.6643702104707,1724.7908245257813 2294.9912558231317,1725.6159890107779 2223.125,1730.0 C 2152.7814013923603,1727.0082090058431 2159.361885521284,1729.6308958724303 2086.25,1730.0 C 2016.9992049234663,1735.132123147908 2019.7431903860427,1726.4163612211169 1949.375,1730.0 C 1880.9832844775315,1732.5228051665204 1877.9966000207744,1732.6499873847035 1812.5,1730.0 C 1749.1688428342052,1733.880867118381 1739.0190135343698,1725.1221446429167 1675.625,1730.0 C 1605.9141930999883,1726.9785734728919 1601.7709875283792,1729.2326386429945 1538.75,1730.0 C 1470.3967669631234,1730.8373397318949 1469.8662787285798,1732.1355375082608 1401.875,1730.0 C 1338.5725540193025,1726.2921204542886 1338.5034935725614,1733.4494947364828 1265.0,1730.0 C 1267.985759961936,1679.1062778967823 1263.259209332751,1684.0429043455183 1265.0,1636.25 C 1265.3031786600054,1591.1757586458307 1266.499983285031,1584.3322823243932 1265.0,1542.5 C 1260.379375809423,1494.655195217243 1270.1858587831766,1495.3281318732838 1265.0,1448.75 C 1260.8130301886974,1404.7402369461129 1261.3368772854387,1405.9979671242809 1265.0,1355.0 C 1265.1301852539855,1310.946383972835 1270.3210919819605,1312.682353665266 1265.0,1261.25 C 1265.1384035821475,1218.3488565247821 1269.2552415073665,1214.8706986478428 1265.0,1167.5 C 1264.3054156850308,1125.1316443839817 1259.5353431427545,1125.5719347915385 1265.0,1073.75 C 1269.8187715350787,1027.8985592092104 1268.5463173173662,1023.7162753211767 1265.0,980.0 Z" fill="none" stroke="black" stroke-width="5"/><!-- second row of panels -->
<rect data-info="3rd panel; middle row; first panel from the left" data-role="panel" data-z-index="2" fill="#006e93" height="750" id="panel_3" width="713" x="120" y="1780"/>
<path d="M 120.0,1780.0 C 163.36346433949518,1781.5126138947337 160.494578224558,1777.9231085995823 209.125,1780.0 C 253.53848791391354,1780.550619543844 251.9995732742214,1779.815165513804 298.25,1780.0 C 342.4730797300618,1782.738117335131 341.43680919051786,1779.9889514365411 387.375,1780.0 C 430.4060403026721,1776.3598116149028 430.1555734303454,1776.0482346572612 476.5,1780.0 C 521.3340995712855,1784.0648510238445 516.9870925613144,1783.4154760483323 565.625,1780.0 C 614.386525952661,1775.8279117157294 611.1837164584017,1780.4961713939742 654.75,1780.0 C 695.6850830798389,1776.1443062746678 697.1787766931585,1782.2372814555465 743.875,1780.0 C 789.9062232978487,1779.2311879503907 784.557469060129,1782.3404583768977 833.0,1780.0 C 828.6946612495207,1827.6700499701678 831.9040024662751,1823.7712658828589 833.0,1873.75 C 831.5983204799977,1921.0330347141405 830.2747888501406,1922.320198998807 833.0,1967.5 C 829.2898943577562,2014.4559886352408 831.203461732066,2017.4781760262172 833.0,2061.25 C 830.4968997608706,2107.711615207266 836.2592200467309,2106.5499617972187 833.0,2155.0 C 835.3134469588697,2200.70661104427 832.0087417396047,2203.758221482294 833.0,2248.75 C 836.8481066089037,2292.1436623025293 831.1550255490049,2294.6651658561614 833.0,2342.5 C 831.0794717821573,2392.0947455902647 836.6950500918241,2393.0703035132715 833.0,2436.25 C 829.1078817437111,2481.728059500436 832.1106921841271,2481.058898932453 833.0,2530.0 C 792.268704344373,2529.2010917182283 790.0802792148929,2533.803055178035 743.875,2530.0 C 699.8634373177996,2532.80534267223 697.4840011496726,2525.702704505394 654.75,2530.0 C 612.9739535284044,2533.5399334184353 614.2687490047037,2531.7963736577203 565.625,2530.0 C 522.9917445654564,2525.805765246731 522.984139012169,2532.7645931564284 476.5,2530.0 C 429.5249782621061,2530.054604084597 429.84618991293064,2527.7070233556415 387.375,2530.0 C 347.11804329918493,2527.7318297957654 338.87850932943684,2530.5285376449706 298.25,2530.0 C 250.97846183106935,2530.5246027219982 253.70311610680147,2532.5990315537265 209.125,2530.0 C 161.9929182884611,2533.6795753609977 163.21419108497503,2525.957910132362 120.0,2530.0 C 118.35180698706907,2479.648109643981 116.48717392401451,2481.533971585909 120.0,2436.25 C 122.61636203738118,2388.178212925205 119.8382249171682,2391.547915130682 120.0,2342.5 C 122.72218795693568,2297.270617223394 119.91250988031197,2298.9347455679604 120.0,2248.75 C 118.36767167726721,2201.282343018827 116.5919041937944,2198.451274550571 120.0,2155.0 C 121.14983484638833,2111.048208686947 121.93258838576784,2107.08092739229 120.0,2061.25 C 120.13371428162077,2014.4465353384962 121.81448838958443,2018.3809097452547 120.0,1967.5 C 119.96309045654716,1920.9490568923432 119.07720427470184,1916.77239408871 120.0,1873.75 C 121.37569812583229,1823.1866559051757 119.05379222371471,1823.8546596704327 120.0,1780.0 Z" fill="none" stroke="black" stroke-width="5"/><rect data-info="4th panel; middle row; second panel from the left" data-role="panel" data-z-index="2" fill="#006e93" height="750" id="panel_4" width="713" x="883" y="1780"/>
<path d="M 883.0,1780.0 C 927.7218051154221,1779.6052885927593 929.9061377481027,1779.6723827133108 972.125,1780.0 C 1014.6413566652576,1780.2741443670543 1016.9666319653026,1779.2634728690139 1061.25,1780.0 C 1102.121883426666,1776.9593752199194 1105.5716503831686,1778.552188384563 1150.375,1780.0 C 1195.5829904744721,1777.057677018086 1193.7222855475295,1775.7481332975526 1239.5,1780.0 C 1285.5701269125334,1781.1867855844519 1286.8050463446832,1775.8897020426573 1328.625,1780.0 C 1370.445797136124,1775.6635587505461 1370.774290726349,1784.3314979611805 1417.75,1780.0 C 1461.2584236024109,1779.8326470045404 1463.2458899597061,1780.2884661431206 1506.875,1780.0 C 1551.8119053885982,1781.051113369562 1554.7454051413326,1780.7584664351386 1596.0,1780.0 C 1598.9835484378368,1822.8924797435236 1599.7999159598112,1826.7140801395312 1596.0,1873.75 C 1597.102247894747,1917.8411140666694 1597.9713986041463,1916.3567197752236 1596.0,1967.5 C 1600.2928926681368,2011.5672568875032 1593.1146089249362,2015.5708361616662 1596.0,2061.25 C 1600.1691901094614,2105.4891839857182 1599.8009397344795,2111.979775714831 1596.0,2155.0 C 1593.0667862814441,2205.518959454387 1595.8153616347881,2198.215712684429 1596.0,2248.75 C 1592.111372179687,2297.409126684137 1593.3421319791582,2298.7038000853063 1596.0,2342.5 C 1597.832053877363,2389.35636040642 1594.2410136762394,2386.3297508268015 1596.0,2436.25 C 1593.2424855558954,2486.8344850798035 1596.7514006936212,2480.001865659272 1596.0,2530.0 C 1550.1917639781384,2531.0082487127556 1547.0922078372234,2530.706771453301 1506.875,2530.0 C 1459.79464507279,2534.1078647965674 1463.0559017226951,2525.8288928201437 1417.75,2530.0 C 1374.766219221065,2533.8372496243774 1373.8151594814276,2534.337469682446 1328.625,2530.0 C 1287.857553443177,2528.9710373412568 1279.722168164364,2528.1971505620727 1239.5,2530.0 C 1198.7414415315252,2526.6410057201933 1198.5058657786433,2533.993457868842 1150.375,2530.0 C 1106.5180123690939,2530.838304626121 1101.4655702362297,2530.0435414540443 1061.25,2530.0 C 1014.6464362761484,2534.3481357503206 1019.5696688893113,2527.389036002624 972.125,2530.0 C 926.124945972693,2530.0464795550924 929.4191469352884,2528.3595327938856 883.0,2530.0 C 886.5319887317792,2482.385186240837 883.4850656374668,2479.161312218936 883.0,2436.25 C 879.8207739903684,2392.2776072835222 883.1419276576761,2391.004236171111 883.0,2342.5 C 885.8695723302532,2293.499992535718 881.7389399136478,2293.9160699034865 883.0,2248.75 C 885.944642406335,2200.16323133289 884.1176060072168,2202.06815751299 883.0,2155.0 C 883.7061985306527,2109.0745178432962 886.9572039039153,2107.588399586582 883.0,2061.25 C 883.7192043953244,2012.3181788287377 886.9669068396039,2012.2642023337646 883.0,1967.5 C 881.8081243460404,1917.070081225919 878.6382157319365,1922.1550904569028 883.0,1873.75 C 884.493732146389,1825.6628260522978 881.9565259477894,1829.9337425780934 883.0,1780.0 Z" fill="none" stroke="black" stroke-width="5"/><rect data-info="5th panel; middle row; third panel from the left" data-role="panel" data-z-index="2" fill="#006e93" height="750" id="panel_5" width="713" x="1646" y="1780"/>
<path d="M 1646.0,1780.0 C 1694.881222639251,1779.7625515799243 1693.177273413422,1783.9434260249113 1735.125,1780.0 C 1780.7423983818248,1784.248353399737 1778.9242224613927,1782.3218553815893 1824.25,1780.0 C 1871.7939854754165,1779.308356767636 1870.331095403589,1781.1424985344756 1913.375,1780.0 C 1957.6234424706824,1777.8237392537499 1954.591694997974,1778.5091763448513 2002.5,1780.0 C 2043.9812780811553,1780.016722944472 2048.2801557498783,1775.6821029744071 2091.625,1780.0 C 2138.807047943061,1776.7945134002177 2137.6198882409317,1782.387616970184 2180.75,1780.0 C 2221.5618077297363,1780.4722831100073 2228.048978488838,1783.1801978353205 2269.875,1780.0 C 2310.2017049399656,1778.9641025824017 2315.9506744603427,1776.7677219134023 2359.0,1780.0 C 2360.879008749392,1827.8296112566884 2361.3154545302705,1829.2070616974956 2359.0,1873.75 C 2360.7863820651655,1916.5687794421608 2363.3045027355106,1922.2516691173012 2359.0,1967.5 C 2362.812273840364,2018.2485602819604 2360.3378906789867,2011.2343946244198 2359.0,2061.25 C 2356.260078505893,2107.877895885199 2362.1962751184083,2111.8703875327046 2359.0,2155.0 C 2361.5820310984054,2203.765828783633 2355.6039119808356,2199.829843624374 2359.0,2248.75 C 2360.4699011845246,2298.8142922268885 2359.8442222531035,2296.809879637975 2359.0,2342.5 C 2358.510134976836,2387.555412835401 2361.6355536761375,2387.0445730426773 2359.0,2436.25 C 2357.428568591333,2482.0983059239575 2363.3047100554404,2483.197037566395 2359.0,2530.0 C 2315.801866613202,2526.2313914053184 2315.407098523017,2533.160143077256 2269.875,2530.0 C 2224.147686317052,2530.728799690456 2223.475758983888,2532.797078667636 2180.75,2530.0 C 2139.8178319745584,2528.7206571771417 2132.5395825924,2525.734904193057 2091.625,2530.0 C 2047.8385904370718,2533.378412055423 2047.6193829636488,2534.0675626673324 2002.5,2530.0 C 1954.2033022013918,2528.36957366802 1962.2665848042845,2534.2970261764126 1913.375,2530.0 C 1864.6825089358035,2525.860025694839 1867.8683468970903,2530.6831426696067 1824.25,2530.0 C 1778.4570977674925,2531.766438833098 1779.6547900499208,2533.3318877935844 1735.125,2530.0 C 1689.2076621094009,2528.226873993826 1694.200028853883,2527.0896175542193 1646.0,2530.0 C 1642.1593522454584,2480.7838484072054 1649.4891631778644,2485.7257229205366 1646.0,2436.25 C 1649.675261146675,2387.5154490073564 1644.4231193254243,2391.825378145525 1646.0,2342.5 C 1645.6785062115794,2293.0594246741216 1644.5813672692354,2298.6707725568704 1646.0,2248.75 C 1642.0204167873414,2204.964324907371 1646.216306833784,2200.716555762352 1646.0,2155.0 C 1648.6201630377377,2112.2401559271916 1643.3780295773236,2112.4956031422244 1646.0,2061.25 C 1643.5494396645352,2011.7910497919015 1645.8112594844577,2012.411411274814 1646.0,1967.5 C 1644.0257639206618,1922.3169718968184 1643.1789755174293,1922.3166276763407 1646.0,1873.75 C 1644.7762154077834,1825.824680105932 1642.721286697978,1830.368239699261 1646.0,1780.0 Z" fill="none" stroke="black" stroke-width="5"/><!-- third row of panels -->
<rect data-info="6th panel; bottom row; first panel from the left" data-role="panel" data-z-index="2" fill="#006e93" height="750" id="panel_6" width="1095" x="120" y="2580"/>
<path d="M 120.0,2580.0 C 188.25684723017366,2580.750931695175 186.73551287591107,2579.862406957714 256.875,2580.0 C 321.16343790791126,2582.885088928624 327.0123108106315,2577.674980408302 393.75,2580.0 C 465.5349598575785,2575.0515227344495 465.26387378674207,2582.340881670609 530.625,2580.0 C 602.7186881322384,2579.020409822153 602.9506098092089,2582.09404120039 667.5,2580.0 C 737.9266830271649,2581.537600795836 736.2000729199391,2582.475934239275 804.375,2580.0 C 876.9656033783082,2579.953689518733 872.4283669650088,2583.2835938934804 941.25,2580.0 C 1010.1532434934586,2576.097621061343 1008.5801613345316,2578.964987641417 1078.125,2580.0 C 1141.815961917622,2585.1350975095606 1149.5485652307555,2580.1707344423644 1215.0,2580.0 C 1214.2646699328266,2629.7928950067076 1219.6790434890413,2628.2984030352704 1215.0,2673.75 C 1217.9217011874769,2717.397094582933 1211.3516284169452,2718.8766673975174 1215.0,2767.5 C 1214.4349119406606,2811.8940503604103 1212.3852750252393,2813.9685362347977 1215.0,2861.25 C 1215.4228157208074,2906.21220826811 1215.4413019125939,2903.4041909035764 1215.0,2955.0 C 1216.9996038259612,2999.1245435710966 1211.7602382103425,3000.7230549304318 1215.0,3048.75 C 1215.6438729968202,3095.2957296660743 1214.765331262938,3097.982635351228 1215.0,3142.5 C 1216.5897199084782,3184.1798536330894 1218.8611333919985,3188.7193850296308 1215.0,3236.25 C 1212.6524514395562,3280.5283761670216 1220.0267852590664,3283.5292327833854 1215.0,3330.0 C 1147.8013384466956,3327.953343387789 1148.182062383332,3324.7148659991917 1078.125,3330.0 C 1013.3606363275014,3329.270002877638 1013.2050039706395,3333.0260083189232 941.25,3330.0 C 871.3502649895829,3332.769776857912 877.9670480094048,3325.8885884373794 804.375,3330.0 C 734.102951735526,3327.7386236822686 739.128276136964,3332.0374195090776 667.5,3330.0 C 594.7353157161613,3327.670125145675 595.5888390284522,3334.08617353027 530.625,3330.0 C 460.66360218571,3333.231873730662 465.88623175959975,3332.7113462428456 393.75,3330.0 C 330.2154683619915,3333.8398326989673 329.58559330982274,3327.700216131961 256.875,3330.0 C 183.65448301037276,3324.907823617288 183.47238393789337,3326.8084383543023 120.0,3330.0 C 122.05058217115493,3285.54833076922 115.38004106307022,3278.6966441763857 120.0,3236.25 C 116.14589499983249,3190.7371584412163 122.21331794748151,3184.6729766599256 120.0,3142.5 C 115.3327027321549,3099.065101178836 118.09344955902013,3093.842959883995 120.0,3048.75 C 124.94327594474115,3003.9424505702204 125.33781381670626,3001.8172092759532 120.0,2955.0 C 118.4420236647044,2909.2715662934347 114.47514840060802,2911.066241031045 120.0,2861.25 C 123.0890348913528,2812.3335190777325 118.48595267028045,2809.455632383992 120.0,2767.5 C 115.18808320417043,2715.269945538096 115.76752222043648,2717.414188747733 120.0,2673.75 C 116.02459411066364,2621.7601048749734 124.9237554106662,2630.843859724144 120.0,2580.0 Z" fill="none" stroke="black" stroke-width="5"/><rect data-info="7th panel; bottom row; second panel from the left" data-role="panel" data-z-index="2" fill="#006e93" height="750" id="panel_7" width="1095" x="1265" y="2580"/>
<path d="M 1265.0,2580.0 C 1330.8762500965665,2579.706026888784 1330.5865642988433,2583.1196195074626 1401.875,2580.0 C 1468.6733343981232,2581.893306210237 1475.2558354277126,2583.3739388862477 1538.75,2580.0 C 1610.6472372245998,2576.6435287485415 1605.1169691642388,2580.629700593106 1675.625,2580.0 C 1740.1633016108835,2583.152700714601 1749.0521457890263,2584.120670141546 1812.5,2580.0 C 1878.9160144248708,2585.0540583244665 1878.65924066872,2579.7190956376003 1949.375,2580.0 C 2013.5237775764692,2583.19213337037 2020.0876366694042,2583.946040445068 2086.25,2580.0 C 2158.6516311125915,2582.7057809309676 2152.4546996623912,2574.500565058257 2223.125,2580.0 C 2288.412772238525,2579.2832101662293 2286.7033263173125,2575.6340549444885 2360.0,2580.0 C 2354.950753052007,2630.612446795315 2362.5102342011637,2625.6663880497567 2360.0,2673.75 C 2354.9219543830577,2724.6635007528694 2363.8858220624475,2715.489446362463 2360.0,2767.5 C 2362.9541806139537,2813.8127272462457 2363.2604156166203,2810.4957946758173 2360.0,2861.25 C 2365.3049583023303,2904.5454508195207 2360.1996910365306,2912.094305179972 2360.0,2955.0 C 2357.5678445932213,3001.25655073571 2361.18746216216,3000.980223863046 2360.0,3048.75 C 2363.6071660782627,3099.2638872242333 2361.566473347429,3092.5670376267053 2360.0,3142.5 C 2355.3231070797183,3186.0952595496806 2356.9574138773883,3194.1369712989244 2360.0,3236.25 C 2357.909914671355,3280.488975844172 2359.7533132555386,3282.8613849551175 2360.0,3330.0 C 2295.4073444695096,3330.356014518716 2292.097448335675,3328.051874836065 2223.125,3330.0 C 2155.3040488594743,3325.4926775169024 2157.2184963024756,3324.9144116155144 2086.25,3330.0 C 2017.135272175268,3332.113440989845 2016.2221875092878,3327.046684865909 1949.375,3330.0 C 1885.3191106261697,3331.330657641371 1883.6178329295503,3332.9683908303855 1812.5,3330.0 C 1747.2786817461215,3334.7594223896367 1741.8662678035246,3324.8233449660856 1675.625,3330.0 C 1605.2643561135283,3328.691892359979 1612.515613101966,3334.0758958344886 1538.75,3330.0 C 1473.8087211932625,3325.077639887435 1466.5282828293934,3326.0729593097944 1401.875,3330.0 C 1333.7896121524664,3326.0785681990224 1332.1553692102466,3329.5502172284955 1265.0,3330.0 C 1268.3095115542403,3285.9888366753084 1269.2572590505451,3280.5268836074138 1265.0,3236.25 C 1264.731731450183,3194.909475267638 1267.3142034448726,3193.9533032506474 1265.0,3142.5 C 1268.2248098703058,3095.476839128953 1267.8202510984113,3096.992369938248 1265.0,3048.75 C 1268.535776978562,2997.0939641063615 1269.1242599287348,3001.5866352209327 1265.0,2955.0 C 1267.6391827034695,2903.051453042837 1262.7565413259467,2909.087605559987 1265.0,2861.25 C 1264.6451659159716,2811.639602762284 1262.4117206889005,2818.456837195423 1265.0,2767.5 C 1263.9626019882908,2720.802281317522 1262.4945821588476,2723.4064825392143 1265.0,2673.75 C 1266.938471571645,2625.982095812981 1263.87145016122,2627.7918302372195 1265.0,2580.0 Z" fill="none" stroke="black" stroke-width="5"/></svg>