<?xml version="1.0" encoding="utf-8"?>
<!DOCTYPE svg PUBLIC "-//W3C//DTD SVG 1.1//EN" "http://www.w3.org/Graphics/SVG/1.1/DTD/svg11.dtd">
<!--
Color palette:
Colors from dark (background) to light (foreground):
#004c6d for data-z-index="0"
#006e93 for data-z-index="1"
#0093b9 for data-z-index="2"    
#00badd for data-z-index="3"
#00e2ff for data-z-index="4"

* The overall page is of the size 2480 × 3508 pixels (i.e. A4 page at 300 dpi)
* The margin is always 120 pixels (this corresponds to approx. 1cm) to the left and right; this only applies to normal panels, not background panels
* The margin is always 180 pixels (this corresponds to approx. 1.5cm) to the top and bottom; this only applies to background panels
* The gutter (the space between foreground panels, horizontally and vertically) is always 50 pixels
--><svg height="3508" version="1.1" viewBox="0, 0, 2480, 3508" width="2480" x="0" xmlns="http://www.w3.org/2000/svg" xmlns:xlink="http://www.w3.org/1999/xlink" y="0">
<desc>
    Page template for a single page with white background and 8 normal foreground panels.
  </desc>
<rect data-role="page-background" data-z-index="0" fill="#FFFFFF" height="3508" width="2480" x="0" y="0"/>
<!-- top half of page: 3 foreground panels; the first and second panels have height of one quarter of the page each; the third panel has height of half the page -->
<rect data-info="1st panel; top row; second panel from the left" data-role="panel" data-z-index="2" fill="#006e93" height="737" id="panel_1" width="1314" x="120" y="180"/>
<path d="M 120.0,180.0 C 204.22823999425978,180.85583271341685 201.88265838743018,181.41878577443146 284.25,180.0 C 368.55385278522033,176.60669127847916 361.7822077851156,182.93423418162416 448.5,180.0 C 534.5687908290466,180.63430612596957 529.63867432909,178.96691749456676 612.75,180.0 C 695.7127894041163,178.3500819545695 691.1684232542816,176.96868765466726 777.0,180.0 C 857.4978929508353,179.6689332861955 857.659190230258,180.98068450027867 941.25,180.0 C 1022.708014159584,185.37575721434328 1026.7429821244216,185.73454317525005 1105.5,180.0 C 1189.8884732785136,182.06665081042158 1189.8005525933652,178.64705450436583 1269.75,180.0 C 1356.66829735985,175.37220373629657 1347.4742670619544,177.54256670846482 1434.0,180.0 C 1437.0251958914012,219.96813505678568 1435.5891468636669,220.73016591415936 1434.0,272.125 C 1438.4417717965973,317.65724512221163 1430.8817758871915,320.1540597479858 1434.0,364.25 C 1433.9000073838256,412.2237198678222 1436.8953440969185,408.7597002453409 1434.0,456.375 C 1437.8629257138057,508.41380054876436 1433.957643444769,497.6198006651106 1434.0,548.5 C 1432.1561452965188,590.2212872639674 1438.1257036789439,590.623769382392 1434.0,640.625 C 1431.9503286748447,683.5319315221767 1428.1919132099406,686.1782716734502 1434.0,732.75 C 1428.4311685255605,779.0277837772927 1433.9877144274415,778.012994391979 1434.0,824.875 C 1439.854108320633,874.7356236590967 1439.537403679917,869.6350045685689 1434.0,917.0 C 1347.9533328254522,914.4941020816158 1346.8432548637165,912.9403698989983 1269.75,917.0 C 1182.5156466978085,922.9384699733456 1189.6902327322496,919.3403078344762 1105.5,917.0 C 1029.259539740219,911.3487342746834 1018.3632833962057,911.7410181621625 941.25,917.0 C 862.8543529872371,919.2051434778174 855.1734469796294,918.7259594353259 777.0,917.0 C 698.4545360055666,910.9032920092548 695.1543930626235,911.7344907443191 612.75,917.0 C 532.7684689706988,917.9437266423 525.1853310807943,916.6721369759516 448.5,917.0 C 370.30884528889317,912.479036651654 371.0870145455589,921.3261872517235 284.25,917.0 C 198.13178342080843,922.8804679603174 200.21843979906123,912.5844134450132 120.0,917.0 C 121.29489112782964,873.9985397691665 114.70763062043719,866.6884731058868 120.0,824.875 C 117.99386654083982,777.7922738241389 125.24768042168226,777.9251198045425 120.0,732.75 C 114.15591357992618,690.6559374317964 114.66302532205576,687.7038075838124 120.0,640.625 C 122.92567525368477,595.3230957952422 115.54117096126161,592.2938673569015 120.0,548.5 C 117.65758076694726,499.68144932652615 116.82675464365035,499.4219739584967 120.0,456.375 C 125.18093807523115,408.8464229074403 123.60019988270726,414.9363285061136 120.0,364.25 C 114.66201357527987,315.3805775743087 121.78413097931669,321.5861013486881 120.0,272.125 C 125.35708152890254,223.58406461940916 114.09478455963199,221.46515938085165 120.0,180.0 Z" fill="none" stroke="black" stroke-width="5"/><rect data-info="2nd panel; top row; third panel from the left" data-role="panel" data-z-index="2" fill="#006e93" height="737" id="panel_2" width="1314" x="120" y="964"/>
<path d="M 120.0,964.0 C 196.67699188934785,959.491058214212 204.77708580314777,959.9428430181622 284.25,964.0 C 366.2620934199977,962.6577694436935 364.4888716068992,960.1886491810541 448.5,964.0 C 534.345949490816,961.0767523049966 531.2556180682279,967.3832262032911 612.75,964.0 C 697.4754640576616,960.3680167016754 698.3852891768558,962.2110576943654 777.0,964.0 C 857.1987581950865,963.8893467410672 857.9149322472655,965.1805248378877 941.25,964.0 C 1021.7794637699523,963.8557515184774 1020.3945089136193,968.6926334617904 1105.5,964.0 C 1193.5051792637878,960.7645261907402 1190.8487289009386,958.1838997131126 1269.75,964.0 C 1351.6138449172156,960.7897537164891 1350.2356170445344,966.1533812373416 1434.0,964.0 C 1431.20640085012,1014.6959240618284 1436.4081830049292,1015.3765624603897 1434.0,1056.125 C 1433.267654065651,1101.0629919207615 1430.5937741296625,1100.8692908224941 1434.0,1148.25 C 1439.9486075394366,1189.3644757599982 1431.1997796728554,1188.845347192102 1434.0,1240.375 C 1438.8824646621595,1289.096352793715 1434.3555389715502,1280.367792820662 1434.0,1332.5 C 1431.6327079357761,1384.297693276971 1433.332357251316,1381.4394929291514 1434.0,1424.625 C 1430.2491285787708,1468.6815115315212 1437.9664527303141,1476.750725768949 1434.0,1516.75 C 1429.5684826296128,1564.0571266579489 1438.2248144260507,1568.8008565488253 1434.0,1608.875 C 1429.591735825176,1653.815245085836 1435.0247218888378,1652.1937584807679 1434.0,1701.0 C 1354.748742896568,1699.5004097560447 1355.275177078121,1697.1150425624062 1269.75,1701.0 C 1186.8789249817157,1701.48975006589 1192.0819397438977,1704.046106442612 1105.5,1701.0 C 1020.5886529928287,1705.8419125741061 1018.0723732349194,1696.111005370767 941.25,1701.0 C 862.1872370336871,1704.149287665768 853.7910661729314,1698.0079299680465 777.0,1701.0 C 689.3664055211938,1695.2860736181606 691.0904717067096,1703.0738566562682 612.75,1701.0 C 533.5639393418078,1699.6122369241739 525.3917454691341,1698.0665403853409 448.5,1701.0 C 369.6210902414978,1703.171606984916 367.81702890592317,1703.9196833020405 284.25,1701.0 C 199.43408682974137,1702.8707917225172 201.85677249454648,1701.38576141093 120.0,1701.0 C 120.46894693736942,1656.3487223990905 124.90741817502501,1658.5330866857773 120.0,1608.875 C 119.39697082637906,1568.8188189541283 119.1144751029277,1564.7663577295173 120.0,1516.75 C 123.8427601332061,1466.777893022778 114.74900611331735,1466.3192382215805 120.0,1424.625 C 115.53142842948718,1380.4602322465043 123.07938732978361,1379.4543838535835 120.0,1332.5 C 117.3784111963412,1291.6452402413145 120.1924395896709,1291.0072511293097 120.0,1240.375 C 117.14267501836481,1195.1974075193036 118.41193690003277,1197.5455949618458 120.0,1148.25 C 122.5041386686113,1105.8214599014248 116.05409782926768,1097.0531517266454 120.0,1056.125 C 126.00025201654971,1013.3454490835991 121.83132239201014,1010.3723486273108 120.0,964.0 Z" fill="none" stroke="black" stroke-width="5"/><rect data-info="3rd panel; top row; first panel from the left" data-role="panel" data-z-index="2" fill="#006e93" height="1524" id="panel_3" width="876" x="1484" y="180"/>
<path d="M 1484.0,180.0 C 1543.094983748079,185.20562777957485 1544.2026450803703,179.38712640361126 1593.5,180.0 C 1647.9724329690252,173.04714364571953 1647.2202772639973,178.73567400735286 1703.0,180.0 C 1755.0941872309031,178.9534622422503 1760.4695176697885,174.48120135023532 1812.5,180.0 C 1870.0922345771405,179.35166017216665 1862.688679425523,172.91078425289422 1922.0,180.0 C 1983.9060563566366,180.46303641351702 1971.237736177773,179.94225079443777 2031.5,180.0 C 2083.060267353571,176.1104623562927 2085.5460868819355,180.54264817889606 2141.0,180.0 C 2201.38166584333,181.11960241305533 2202.4502088412655,177.85604285409372 2250.5,180.0 C 2301.9713153048506,175.93122900461702 2309.109705937828,181.67239489999966 2360.0,180.0 C 2359.1016184584273,268.80733778132077 2355.382313503847,268.7115192311578 2360.0,370.5 C 2366.200395859824,468.42817225378025 2356.630801131542,467.81350818507406 2360.0,561.0 C 2353.483721350864,660.7265356275071 2358.378046834592,654.1690699271073 2360.0,751.5 C 2363.6883618952616,846.4775870389328 2361.7954991514302,840.2827979981764 2360.0,942.0 C 2358.5123607946143,1035.737002033255 2364.354920579598,1043.9225382848074 2360.0,1132.5 C 2366.2653258537166,1224.4357837713515 2359.336221352541,1223.3810112860906 2360.0,1323.0 C 2353.2510210142705,1413.0949086399035 2360.536402761592,1412.7638604749245 2360.0,1513.5 C 2358.531816123236,1605.9704811514755 2353.5020835883447,1607.983021913011 2360.0,1704.0 C 2304.211888653961,1700.0039922674143 2298.7329260728998,1699.3937946306187 2250.5,1704.0 C 2199.4344209356937,1707.0224672182073 2194.278047396097,1710.1991143532568 2141.0,1704.0 C 2087.2144722315675,1708.403149441517 2086.951294415959,1705.9357004452743 2031.5,1704.0 C 1979.3651445458167,1707.9864754481548 1970.9922459730624,1709.607647373579 1922.0,1704.0 C 1865.4744018963856,1703.7669208644304 1861.3493006138233,1703.2206245111945 1812.5,1704.0 C 1752.3502933049929,1705.4728325819985 1758.4657431026556,1702.4679608415026 1703.0,1704.0 C 1642.3940007133335,1708.0343855133478 1646.38405984771,1709.6260346351507 1593.5,1704.0 C 1538.565841769962,1708.4636436846517 1543.8542248149226,1704.3214032513781 1484.0,1704.0 C 1489.79909782944,1610.0315865064156 1484.7288248249522,1603.0454803247462 1484.0,1513.5 C 1484.5009819155453,1420.0249883063693 1479.7606228882637,1419.5377840557896 1484.0,1323.0 C 1477.2454697871058,1230.2969518126272 1486.0400807931514,1228.3327656424651 1484.0,1132.5 C 1478.5845485885193,1035.636458187487 1477.7837512353597,1031.6707651384174 1484.0,942.0 C 1487.4845368266424,840.375853614691 1488.2034470779809,840.8108978779142 1484.0,751.5 C 1481.3957931564846,659.9892293720744 1483.4848060270874,657.942486412047 1484.0,561.0 C 1488.0915853729014,461.0874173702048 1477.7304846387426,469.90811250836333 1484.0,370.5 C 1485.8908577509092,277.02098897149875 1482.2576938527086,270.4040136507696 1484.0,180.0 Z" fill="none" stroke="black" stroke-width="5"/><!-- second row of panels -->
<rect data-info="5th panel; bottom row; first panel from the left" data-role="panel" data-z-index="2" fill="#006e93" height="762" id="panel_5" width="713" x="120" y="1754"/>
<path d="M 120.0,1754.0 C 167.12943749889786,1754.8104295186492 161.05765425164054,1751.517325486404 209.125,1754.0 C 256.5242303454843,1758.2231548486864 255.3799144725885,1755.3456067030127 298.25,1754.0 C 340.8052507334288,1749.9330353158948 343.97202510640756,1755.4780595222342 387.375,1754.0 C 434.8881255707675,1752.270373751116 430.3524582517158,1751.8401903933366 476.5,1754.0 C 519.3887773072584,1754.38298378374 521.7728512728049,1751.1749288696578 565.625,1754.0 C 606.9256766078365,1751.2155021475198 611.9643847555059,1751.8617675799765 654.75,1754.0 C 699.9199342764208,1753.2183144130224 696.9862606819165,1756.0459857725025 743.875,1754.0 C 784.2332423614168,1754.6340068445159 791.8525666663799,1753.2038822468749 833.0,1754.0 C 831.5482606492923,1800.0048120377774 834.7979542511515,1798.113497772167 833.0,1849.25 C 828.599278760192,1901.0929294662774 832.4452758947876,1895.9621146929373 833.0,1944.5 C 834.0699381674583,1989.6515154184715 834.9123449032526,1992.074379443783 833.0,2039.75 C 828.703297042294,2091.229446498425 834.646273189814,2084.311733128728 833.0,2135.0 C 834.671894830916,2180.546135848415 835.8142466241975,2181.7877108554144 833.0,2230.25 C 831.1324562758313,2278.0244881354256 837.3808654725034,2275.3991763002787 833.0,2325.5 C 833.4716316874759,2368.839377413296 828.7719266450725,2374.7876050440955 833.0,2420.75 C 832.3461302747111,2469.059458211786 835.2882867918515,2467.208727667137 833.0,2516.0 C 786.4817484461444,2515.377759277275 788.5482180937342,2520.2083212892626 743.875,2516.0 C 702.588205226244,2518.232844867234 696.0857650891188,2513.8293390579433 654.75,2516.0 C 608.5979982713976,2513.429928292706 613.3268543035468,2516.903963877253 565.625,2516.0 C 522.8486912542805,2512.00115471715 523.2217916738383,2512.45385310199 476.5,2516.0 C 429.74992993290965,2512.293571016054 432.4633990745399,2518.062055607701 387.375,2516.0 C 342.3630402264921,2512.976149393564 339.6138146746898,2515.8171831971213 298.25,2516.0 C 252.2415540414459,2519.4263619701187 255.349345116975,2516.5114597228658 209.125,2516.0 C 165.6342140940244,2512.8420421404035 166.5962243586293,2520.2324054699993 120.0,2516.0 C 123.33021314678692,2464.2537340396043 118.51953989752327,2466.7518737350833 120.0,2420.75 C 118.13561221869367,2369.74598350724 122.32737309453194,2370.137614339766 120.0,2325.5 C 122.20061157556958,2276.087775806492 122.52936377811263,2281.0469633347634 120.0,2230.25 C 119.37215619192258,2184.2225291668933 117.99031293622498,2183.243464214492 120.0,2135.0 C 118.28029095904691,2085.7657422015955 120.0740660844424,2083.306580001413 120.0,2039.75 C 121.92553606447358,1994.9039605377166 121.73788454306448,1988.784233614109 120.0,1944.5 C 116.92126917842931,1893.6703128729866 115.71743718728105,1900.1680101724742 120.0,1849.25 C 119.53305041691547,1799.8556660031554 119.17253263140995,1802.0092007287194 120.0,1754.0 Z" fill="none" stroke="black" stroke-width="5"/><rect data-info="6th panel; bottom row; second panel from the left" data-role="panel" data-z-index="2" fill="#006e93" height="762" id="panel_6" width="713" x="883" y="1754"/>
<path d="M 883.0,1754.0 C 931.0154791736512,1754.8936875557747 923.3067777384182,1758.2262372133227 972.125,1754.0 C 1012.6601034484472,1752.6047837183137 1018.1920344299709,1755.8403614992108 1061.25,1754.0 C 1105.4853180479472,1754.6002311171108 1101.8975905232176,1754.81486463394 1150.375,1754.0 C 1190.575593483425,1750.0843573865486 1196.9767823924087,1752.9336750124469 1239.5,1754.0 C 1282.0964413851298,1754.7589631748892 1284.2749114779692,1755.8977850023657 1328.625,1754.0 C 1370.6261472333902,1750.3568853788493 1372.9309346202472,1750.7311577741584 1417.75,1754.0 C 1463.9758421847375,1757.5852573703644 1462.4964943132627,1753.1783466905313 1506.875,1754.0 C 1555.1445117084809,1755.5717844047697 1552.0892116257878,1753.3194028005087 1596.0,1754.0 C 1596.6655551652525,1801.2568888743272 1598.4187514497034,1800.418407269774 1596.0,1849.25 C 1593.2406656270812,1893.0325066432702 1591.5986339310116,1900.4070920582594 1596.0,1944.5 C 1592.9071332064113,1994.6196882465551 1596.4713411036093,1995.2094040118425 1596.0,2039.75 C 1597.6439619520725,2089.443844854855 1597.2761544722312,2090.0690751450584 1596.0,2135.0 C 1598.2364399504118,2183.248783360032 1599.5914251797203,2178.915121239101 1596.0,2230.25 C 1596.60529238313,2276.435377055797 1595.3478640523833,2279.813549139684 1596.0,2325.5 C 1598.6924378404872,2370.4089958926056 1592.5070560127772,2371.9252095765246 1596.0,2420.75 C 1592.1636471320908,2464.736525253825 1598.6133571716011,2464.3759330440585 1596.0,2516.0 C 1552.4606893992698,2519.8249061458046 1548.4115395886624,2517.4642326777466 1506.875,2516.0 C 1466.0081436757762,2519.1926780879635 1464.1480072339707,2511.619712614324 1417.75,2516.0 C 1369.2189256936445,2517.156464740053 1376.68635157939,2516.2219855683875 1328.625,2516.0 C 1280.6250108375841,2514.1841249475046 1282.1830524154811,2517.5961500533112 1239.5,2516.0 C 1191.226921850489,2514.359293351141 1192.3698618648352,2516.4221071201755 1150.375,2516.0 C 1103.4604968732824,2513.162369496963 1107.6413758448355,2516.2766598989465 1061.25,2516.0 C 1019.6430286844602,2513.473179786151 1017.3234435608324,2515.258003399801 972.125,2516.0 C 931.3064159132527,2514.8306242664894 925.0339083919428,2516.8280456159564 883.0,2516.0 C 884.7034410045417,2469.1498610477274 879.7901994301649,2465.2089629078505 883.0,2420.75 C 881.3946636883178,2375.8236083002093 886.0551319454156,2376.7556606958456 883.0,2325.5 C 883.5016784113168,2281.426810587106 881.420386470153,2275.884336358553 883.0,2230.25 C 878.7004921763779,2183.529081371513 878.7128726827577,2178.92735181888 883.0,2135.0 C 884.0314437361732,2088.90200550361 881.4750002301278,2088.5028392353197 883.0,2039.75 C 887.1376591974847,1990.877195391163 879.0442137467446,1993.3188940291234 883.0,1944.5 C 878.8720777092332,1898.6852384370331 885.9378045936195,1892.6572091712371 883.0,1849.25 C 882.2155798007598,1800.0854827825472 884.2390674834555,1804.9455313288152 883.0,1754.0 Z" fill="none" stroke="black" stroke-width="5"/><rect data-info="7th panel; bottom row; third panel from the left" data-role="panel" data-z-index="2" fill="#006e93" height="762" id="panel_7" width="713" x="1646" y="1754"/>
<path d="M 1646.0,1754.0 C 1689.0032090706889,1753.0662167056141 1691.0359620130191,1755.6629618637423 1735.125,1754.0 C 1783.5524794860678,1749.6330434399995 1780.8556755389382,1750.7249853360318 1824.25,1754.0 C 1869.9716947272746,1751.242116099212 1871.2292368964986,1754.6634441543406 1913.375,1754.0 C 1961.5243517425351,1751.6404816160589 1958.3180091787788,1756.8480097463955 2002.5,1754.0 C 2045.8204745537007,1750.4839378170298 2046.2300634240253,1749.6904583362093 2091.625,1754.0 C 2138.972231707877,1756.633816866243 2132.8565347870463,1751.6104146293785 2180.75,1754.0 C 2225.2120981848448,1754.140560661633 2221.6898985457356,1751.7329674527116 2269.875,1754.0 C 2314.604078519354,1753.102934874475 2314.4178948067583,1752.4885514810326 2359.0,1754.0 C 2362.2289736935895,1802.8252470319228 2361.8829364029048,1803.863526024471 2359.0,1849.25 C 2357.2618730184054,1892.5485739745955 2359.745815009276,1900.820220075875 2359.0,1944.5 C 2355.125181433939,1991.431173543501 2356.8616105047545,1990.491374141602 2359.0,2039.75 C 2362.0489941773076,2083.7495894523527 2361.849437814478,2084.95642346792 2359.0,2135.0 C 2357.191600185178,2180.2866806978714 2360.158598344177,2181.415803271018 2359.0,2230.25 C 2354.900763193422,2277.707187199373 2362.877341980841,2281.955323265295 2359.0,2325.5 C 2355.8350712206407,2371.2373725593966 2360.8582570001204,2374.692677782755 2359.0,2420.75 C 2358.551152668122,2471.9408598276245 2358.6852090227208,2467.819280895377 2359.0,2516.0 C 2310.246573559321,2515.306791283194 2313.2062966614617,2512.859418547107 2269.875,2516.0 C 2224.5478725517264,2519.308810732714 2221.8427099549526,2519.990216472272 2180.75,2516.0 C 2140.5819848443075,2518.456416871704 2136.4424798805953,2519.093410610237 2091.625,2516.0 C 2046.5656389513274,2516.703629415585 2048.3424449621775,2516.5474524366546 2002.5,2516.0 C 1956.281986904937,2514.186694018234 1955.7626818943254,2512.2345307230717 1913.375,2516.0 C 1871.9956876054584,2514.316822391991 1866.0587666740716,2519.6221449101245 1824.25,2516.0 C 1783.368333748368,2516.37113417902 1776.6040498692978,2518.138723281511 1735.125,2516.0 C 1686.705191307152,2517.694034787953 1691.4834282970587,2517.243226248466 1646.0,2516.0 C 1649.3360621085455,2468.4421792167013 1647.3752782967017,2463.9754693619875 1646.0,2420.75 C 1646.64244284907,2373.246537113592 1647.5932556963792,2372.804665806394 1646.0,2325.5 C 1645.738745401165,2276.267711285003 1641.942487292395,2281.927195265886 1646.0,2230.25 C 1642.2442932556203,2184.0525204625874 1646.4661306698129,2181.48629486359 1646.0,2135.0 C 1643.1111381310343,2088.0563432329172 1642.927381009745,2088.142125874166 1646.0,2039.75 C 1644.1533029745356,1990.824002347778 1647.7788254949564,1994.918118043098 1646.0,1944.5 C 1646.819850327022,1893.0913490084097 1645.227612498349,1901.2858668367203 1646.0,1849.25 C 1644.3422232112966,1798.5000963545344 1645.080787878019,1797.3263872663945 1646.0,1754.0 Z" fill="none" stroke="black" stroke-width="5"/><!-- third row of panels -->
<rect data-info="8th panel; bottom row; first panel from the left" data-role="panel" data-z-index="2" fill="#006e93" height="762" id="panel_8" width="1095" x="120" y="2566"/>
<path d="M 120.0,2566.0 C 184.44390044514674,2566.7400667508173 190.7558883947391,2565.6413307340918 256.875,2566.0 C 321.04626652006544,2566.6271076726634 326.1220180677159,2568.0589840157218 393.75,2566.0 C 465.5811211718004,2560.4524669000652 463.71882018590435,2560.46588915332 530.625,2566.0 C 595.853702260534,2562.755416732904 594.733326107373,2566.742900008455 667.5,2566.0 C 734.7325343969692,2562.097926475256 737.5536739877684,2562.524932334258 804.375,2566.0 C 877.9032852163366,2563.151732431094 872.6553460820608,2568.579952476569 941.25,2566.0 C 1007.0299524407571,2570.3931806887354 1005.5544077056485,2568.205493296718 1078.125,2566.0 C 1145.462307635377,2565.7823179600673 1149.3618166562683,2563.034749363218 1215.0,2566.0 C 1210.6586004535209,2616.523030001679 1220.0084018325779,2618.4027803374124 1215.0,2661.25 C 1210.6377665554446,2708.278701172453 1211.9542001660213,2711.7110022179177 1215.0,2756.5 C 1211.5182136917101,2801.9177969983893 1212.2557015066811,2808.817015868905 1215.0,2851.75 C 1209.4529249583798,2901.5598642788514 1211.5109749294068,2899.1640893202784 1215.0,2947.0 C 1214.990562577561,2990.948198284207 1219.166136294547,2997.4070895412556 1215.0,3042.25 C 1218.0847794451927,3094.658495654342 1212.4263178525885,3090.909834624957 1215.0,3137.5 C 1217.029125404173,3182.2839864579673 1212.239730193782,3180.8137550305064 1215.0,3232.75 C 1209.7193916082463,3282.249818745661 1210.440404106063,3278.119770407581 1215.0,3328.0 C 1145.6275699770547,3331.892823324856 1144.1940346780098,3330.903662126869 1078.125,3328.0 C 1005.627551614889,3331.669474261723 1012.0931619344667,3331.394847614608 941.25,3328.0 C 867.6765204517839,3332.200629788082 872.3507875080865,3328.4814045122857 804.375,3328.0 C 738.4890017762722,3325.013390028436 737.9064395532699,3332.085627651371 667.5,3328.0 C 600.2277011310472,3326.550222731494 598.5516885536379,3328.3704574555036 530.625,3328.0 C 460.2352500843583,3327.629286271837 461.51313720674113,3330.426240040665 393.75,3328.0 C 326.10220608586206,3330.3296537259575 321.77674428186697,3330.206873807583 256.875,3328.0 C 188.49294951986982,3332.3890866864945 183.82304426020542,3331.583566703729 120.0,3328.0 C 119.45067631091332,3276.169974432999 125.26505433210859,3282.5853960668833 120.0,3232.75 C 117.34780088973463,3186.9681805739647 117.57069510187667,3184.638068591209 120.0,3137.5 C 121.74999537915009,3088.1320763701224 115.18742078249225,3089.237377745305 120.0,3042.25 C 120.25956137534786,2992.901061009839 118.26498258417925,2995.8214962429697 120.0,2947.0 C 122.03296261294383,2901.9950867270754 122.5373174624891,2898.922329327175 120.0,2851.75 C 121.06309659877414,2803.4135980149813 125.16988707972723,2800.1340380577667 120.0,2756.5 C 116.97440520768713,2705.3538821567117 123.39075620130262,2712.946597924083 120.0,2661.25 C 117.6477932478344,2616.009942654288 125.05386946410158,2612.5698848106836 120.0,2566.0 Z" fill="none" stroke="black" stroke-width="5"/><rect data-info="9th panel; bottom row; second panel from the left" data-role="panel" data-z-index="2" fill="#006e93" height="762" id="panel_9" width="1095" x="1265" y="2566"/>
<path d="M 1265.0,2566.0 C 1331.276587158768,2562.306596001025 1333.1178645029681,2563.332965267595 1401.875,2566.0 C 1470.2409187769954,2562.3399244243824 1468.1773657878275,2569.8573285824646 1538.75,2566.0 C 1605.9358167196358,2569.1086376449603 1606.005479917807,2565.6455499084905 1675.625,2566.0 C 1748.2055752489562,2560.928836173247 1738.7308580550994,2571.27991871204 1812.5,2566.0 C 1878.1532657771422,2560.482309879104 1876.9919740188793,2570.7784699019 1949.375,2566.0 C 2014.9681166530033,2565.118232714718 2016.4214061688429,2564.386652198346 2086.25,2566.0 C 2152.1732610543204,2562.866586880142 2157.3959029522002,2563.612264922579 2223.125,2566.0 C 2294.058232031123,2570.271204636373 2287.074074528081,2566.533950998394 2360.0,2566.0 C 2356.565563320523,2609.0279672192873 2361.9024337477945,2618.5297556469013 2360.0,2661.25 C 2361.055220143388,2713.55373041163 2359.740394589947,2708.76332789401 2360.0,2756.5 C 2363.8179206429404,2808.2985159656323 2356.4075794428722,2804.91701959826 2360.0,2851.75 C 2361.6671108480755,2901.190935818143 2361.5829303746054,2904.855098050985 2360.0,2947.0 C 2355.0093963798286,2999.9600994983334 2364.5935258631607,2995.460599499216 2360.0,3042.25 C 2360.581446449578,3094.8161488920446 2364.177296640368,3089.6279359851187 2360.0,3137.5 C 2364.129854350423,3188.451153626354 2359.0904201115814,3182.1890445934177 2360.0,3232.75 C 2364.123657989317,3276.224311041314 2355.220723795941,3281.9895266554568 2360.0,3328.0 C 2287.9091010170387,3324.220831811677 2286.2380263568843,3324.6970324521294 2223.125,3328.0 C 2154.0593594457623,3324.607001442659 2159.801817765248,3329.2255067781243 2086.25,3328.0 C 2015.4874022147494,3332.901934771563 2015.2457221997408,3330.3048810926743 1949.375,3328.0 C 1886.1698603115767,3328.0639786898173 1877.908075617753,3326.4921383628425 1812.5,3328.0 C 1740.6543363406947,3331.4644708270625 1746.3527688953338,3330.3552861658927 1675.625,3328.0 C 1605.429581264436,3333.043844579514 1610.7594111021315,3324.666127265238 1538.75,3328.0 C 1474.9477778783316,3322.954142708343 1468.8597340832896,3327.6179744213464 1401.875,3328.0 C 1338.8128623497112,3324.194125790877 1332.4037638700036,3324.888285511093 1265.0,3328.0 C 1264.25004006371,3280.4242976057126 1262.2119761187914,3280.0655679403767 1265.0,3232.75 C 1260.1914122266992,3189.71839399449 1268.8511196722047,3190.4164138696515 1265.0,3137.5 C 1260.2090055155613,3092.9461264264737 1265.074797230532,3087.75377752132 1265.0,3042.25 C 1265.3399623880687,2992.610345353368 1263.884832737883,2998.303735968057 1265.0,2947.0 C 1261.9109230064314,2903.688003748477 1262.3452004534524,2898.176352278507 1265.0,2851.75 C 1268.2194254516264,2803.8763838243267 1264.956577522019,2802.5968985190666 1265.0,2756.5 C 1261.8276367650892,2710.466309368266 1269.7043504795133,2703.8377532264094 1265.0,2661.25 C 1269.2196678582475,2613.834153485235 1266.4385547062022,2612.1350273999765 1265.0,2566.0 Z" fill="none" stroke="black" stroke-width="5"/></svg>