<?xml version="1.0" encoding="utf-8"?>
<!DOCTYPE svg PUBLIC "-//W3C//DTD SVG 1.1//EN" "http://www.w3.org/Graphics/SVG/1.1/DTD/svg11.dtd">
<!--
Color palette:
Colors from dark (background) to light (foreground):
#004c6d for data-z-index="0"
#006e93 for data-z-index="1"
#0093b9 for data-z-index="2"    
#00badd for data-z-index="3"
#00e2ff for data-z-index="4"

* The overall page is of the size 2480 × 3508 pixels (i.e. A4 page at 300 dpi)
* The margin is always 120 pixels (this corresponds to approx. 1cm) to the left and right; this only applies to normal panels, not background panels
* The margin is always 180 pixels (this corresponds to approx. 1.5cm) to the top and bottom; this only applies to background panels
* The gutter (the space between foreground panels, horizontally and vertically) is always 50 pixels
-->
<svg height="3508" version="1.1" viewBox="0, 0, 2480, 3508" width="2480" x="0" xmlns="http://www.w3.org/2000/svg" xmlns:xlink="http://www.w3.org/1999/xlink" y="0">
  <desc>
      Page template for a single page with a background panel that takes up half the page.
      The background panel is partially covered, used for atmosphere and should not contain any characters or objects.
      The six foreground panels are the main content of the page and can contain characters and objects.
      The six foreground panels are of equal width and height.
    </desc>
  <rect data-role="page-background" data-z-index="0" fill="#FFFFFF" height="3508" width="2480" x="0" y="0"/>
  <rect data-info="half-page background panel for atmosphere; do not use characters objects as it is partially covered by further panels" data-role="panel" data-z-index="1" fill="#004c6d" height="1754" id="background_panel" width="2480" x="0" y="0"/>
  <!-- top row foreground panels: 3 panels, width=[1/3, 1/3, 1/3] of available width considering gutter and margin -->
  <rect data-info="1st panel; top row; first panel from the left" data-role="panel" data-z-index="2" fill="#006e93" height="784" id="panel_1" width="713" x="120" y="1569"/>
  <path d="M 120.0,1569.0 C 166.4780032767484,1573.0711489771716 163.87168771176408,1572.6975231898962 209.125,1569.0 C 250.10628245141964,1565.0904280141174 254.87681723566357,1566.860151540872 298.25,1569.0 C 342.4757237905228,1573.1677888642112 346.5959671506169,1572.1838092234734 387.375,1569.0 C 431.51898139122414,1571.4034655016922 430.20337521041904,1568.042694097594 476.5,1569.0 C 518.4110880892891,1566.944062575792 521.1585719495471,1569.8879048024783 565.625,1569.0 C 611.2603795363513,1570.8770124625776 614.0987141735764,1573.2675411429689 654.75,1569.0 C 699.9189027253424,1566.2924087175338 700.0506307442835,1569.3651661260633 743.875,1569.0 C 792.2700694123928,1566.9529258714952 791.5914821593238,1567.2107140193755 833.0,1569.0 C 832.4244705160147,1618.281881651544 835.6767420158682,1620.8495917180958 833.0,1667.0 C 828.9871722424008,1714.3109767817798 828.6298804058612,1718.438773587274 833.0,1765.0 C 830.2754970291456,1810.123621932267 831.5406287399474,1811.0467664475257 833.0,1863.0 C 836.9803290095568,1909.77298420009 836.9445751416243,1915.5791608345555 833.0,1961.0 C 834.0934340534284,2011.6424859839833 832.776332766654,2006.8104529332793 833.0,2059.0 C 831.3943114577612,2103.587889069511 836.6518361451558,2106.8578390389857 833.0,2157.0 C 836.1372646411828,2210.323977796308 835.6379193853214,2203.2064600389067 833.0,2255.0 C 832.9056311617526,2305.1350094361046 833.9991533537324,2305.8138768567255 833.0,2353.0 C 790.7865355533644,2351.702904148467 791.6696615925542,2355.2475462453167 743.875,2353.0 C 700.1813959641612,2349.4034939224143 703.0529604885147,2351.7012897894806 654.75,2353.0 C 609.4271072389905,2357.060551733805 612.1878177754041,2352.8804330014223 565.625,2353.0 C 524.3830638879257,2349.035947038194 520.1512855307358,2351.2635274372296 476.5,2353.0 C 432.7542501576316,2356.28995355361 433.3786839125979,2354.2695191877838 387.375,2353.0 C 338.92339336699933,2356.8340761139475 341.5452378000177,2354.9490243510954 298.25,2353.0 C 251.72432401272465,2352.326960219813 254.89404150862194,2356.3125307037076 209.125,2353.0 C 165.59109459721006,2357.1725409031706 161.36591921131347,2354.562145822416 120.0,2353.0 C 118.65711297494595,2306.0774351334285 116.87180372717913,2299.984991724612 120.0,2255.0 C 116.06179176096134,2208.0662639358666 120.17474914745154,2202.4895882229434 120.0,2157.0 C 122.05925163558705,2108.7913469106325 117.382263067618,2110.6484440108247 120.0,2059.0 C 115.99821635503291,2007.4457308950364 123.58681420701856,2008.32546528666 120.0,1961.0 C 123.36378279076277,1913.2841885592675 116.52055936199356,1912.8503336140889 120.0,1863.0 C 118.46321014859309,1811.0844336153252 119.0587160548807,1809.724461473506 120.0,1765.0 C 120.93184341396191,1716.1142149205389 118.315413931025,1716.4804146635674 120.0,1667.0 C 120.35023796787235,1619.3935045939184 119.23607861770871,1620.222675969398 120.0,1569.0 Z" fill="none" stroke="black" stroke-width="5"/>
  <rect data-info="2nd panel; top row; second panel from the left" data-role="panel" data-z-index="2" fill="#006e93" height="784" id="panel_2" width="713" x="883" y="1569"/>
  <path d="M 883.0,1569.0 C 926.1965904471236,1571.18038728187 927.1411867827546,1570.3554621249214 972.125,1569.0 C 1017.645542046,1569.9056683406004 1016.451126833134,1564.8587690283098 1061.25,1569.0 C 1109.2595225063744,1565.5259198043875 1103.7223281792628,1564.9516172931026 1150.375,1569.0 C 1196.6453676692586,1565.955825618398 1193.3951791150005,1568.9420779795423 1239.5,1569.0 C 1279.6521671794956,1567.2012125409678 1280.6528388850948,1568.7776276528798 1328.625,1569.0 C 1369.8359657447972,1573.3122595894795 1369.8364287507356,1570.206316659986 1417.75,1569.0 C 1465.275620415605,1564.9312558347472 1462.0542143054197,1570.5884881170641 1506.875,1569.0 C 1552.4851827714824,1573.2086667630097 1550.8893363120326,1566.0268864483742 1596.0,1569.0 C 1597.3419018988313,1620.433017715567 1597.0109523359158,1617.2773248316803 1596.0,1667.0 C 1595.3423545194637,1714.2952532021834 1594.899369802424,1717.4845910539557 1596.0,1765.0 C 1600.2743027413565,1813.2583794308462 1594.79146555267,1815.9705854277634 1596.0,1863.0 C 1592.5107806992671,1914.9443941240934 1599.857642660623,1910.046308054464 1596.0,1961.0 C 1593.7799825159768,2012.9033241734198 1596.9472351099057,2006.5018490540358 1596.0,2059.0 C 1597.042570259993,2110.1901645618495 1596.5832203488965,2106.6521699401173 1596.0,2157.0 C 1599.1894686208632,2208.9221192967816 1596.2207333759093,2202.287757939265 1596.0,2255.0 C 1593.5850228433765,2305.3030273483573 1591.858974098253,2299.909719104392 1596.0,2353.0 C 1552.4585220975578,2356.6152402957473 1553.7906808301288,2352.9440170494413 1506.875,2353.0 C 1461.9550463877517,2348.970215276435 1457.9969589915365,2351.778577319383 1417.75,2353.0 C 1376.5395932356028,2354.456399573868 1371.2304327969002,2353.271310114533 1328.625,2353.0 C 1281.9977234975447,2353.8247670266765 1285.7332670867015,2353.316444873351 1239.5,2353.0 C 1194.093303310518,2354.1629595065397 1198.002292916592,2350.6516189329595 1150.375,2353.0 C 1109.1167934477485,2352.662867186467 1109.6704265302214,2350.382370438234 1061.25,2353.0 C 1018.1012261769922,2349.901768877384 1016.5505690419585,2352.2369884124373 972.125,2353.0 C 925.0413446458282,2355.833804131684 928.1972813339488,2356.4034884851535 883.0,2353.0 C 883.1787329528304,2306.5398339159433 879.8701015763579,2302.2131081633474 883.0,2255.0 C 884.7254805396985,2209.739220953447 883.2246806736764,2202.7285184616244 883.0,2157.0 C 885.5641663746588,2106.262311314606 883.407746255631,2106.736674083496 883.0,2059.0 C 878.8628387273495,2008.589706312887 880.3677244470807,2011.9656914595346 883.0,1961.0 C 882.126672419048,1912.9131177136378 879.1694523381612,1912.3986772942023 883.0,1863.0 C 885.7057136088389,1811.1271160630183 880.8572013309011,1818.3504978417864 883.0,1765.0 C 885.6578589673487,1711.739778281298 887.121201428793,1714.2467863830432 883.0,1667.0 C 884.770639828721,1616.1924810924463 882.5493935860375,1621.8985114606976 883.0,1569.0 Z" fill="none" stroke="black" stroke-width="5"/>
  <rect data-info="3rd panel; top row; third panel from the left" data-role="panel" data-z-index="2" fill="#006e93" height="784" id="panel_3" width="713" x="1646" y="1569"/>
  <path d="M 1646.0,1569.0 C 1690.2780170808298,1573.222959203529 1691.4959154478627,1572.0666098268903 1735.125,1569.0 C 1776.0454772869557,1564.8864037693247 1780.1491115228453,1569.6529871554746 1824.25,1569.0 C 1867.6581263225441,1571.7333964792135 1871.0296285539835,1568.4888228254895 1913.375,1569.0 C 1954.062211841873,1564.641751767773 1956.047761104233,1567.1676156188098 2002.5,1569.0 C 2048.9270263165117,1573.089186077789 2046.0490947389337,1567.1484342676754 2091.625,1569.0 C 2132.3581896968126,1569.4331363000108 2139.8037987945563,1571.768417803621 2180.75,1569.0 C 2222.394654163128,1570.4796461326212 2224.1243022542267,1565.5086219125337 2269.875,1569.0 C 2311.379507045136,1566.218823115004 2316.190545736469,1565.9845719481837 2359.0,1569.0 C 2362.7372322757583,1616.9352324879583 2360.116817292963,1616.3993604306654 2359.0,1667.0 C 2360.1212542219896,1718.8955585505953 2354.9762341239307,1718.9908610589341 2359.0,1765.0 C 2360.686661941745,1810.6957955743057 2358.617957201905,1812.9248770636768 2359.0,1863.0 C 2355.6845493742226,1910.0143457795493 2361.9662929900346,1908.6766196514059 2359.0,1961.0 C 2361.8090850095336,2013.4538443246215 2360.255147508588,2009.2123645584766 2359.0,2059.0 C 2359.894196304533,2109.4967580068683 2362.240150371307,2112.33088283462 2359.0,2157.0 C 2361.898586466762,2209.263217470939 2358.8374236722634,2206.3799738341827 2359.0,2255.0 C 2356.401600411852,2306.2840747746395 2361.175864353388,2306.3306768327884 2359.0,2353.0 C 2314.068806900989,2351.4447815014696 2314.821339301952,2354.7656768745273 2269.875,2353.0 C 2226.0280824837396,2354.093189529893 2226.218231673054,2353.809516249644 2180.75,2353.0 C 2139.1014803958233,2356.3463243963706 2131.9214679648985,2356.734458437854 2091.625,2353.0 C 2047.4838186098038,2356.5956393315287 2047.8782534094146,2349.2785031265757 2002.5,2353.0 C 1959.6356855268584,2353.9497860203937 1958.1258285147062,2356.102742971984 1913.375,2353.0 C 1866.8680878708935,2355.215433187213 1868.7261081735085,2357.096558261103 1824.25,2353.0 C 1783.5624354385347,2350.4341425258067 1779.6516367067948,2350.6411742467017 1735.125,2353.0 C 1686.8180449307897,2352.5908355014312 1687.5574178666877,2355.4728412397753 1646.0,2353.0 C 1645.4887095615122,2306.3151883983173 1649.026296443608,2305.1630974457207 1646.0,2255.0 C 1644.2741378554779,2204.8473616272267 1650.1324172268085,2210.424610738072 1646.0,2157.0 C 1643.5653016960175,2104.4967734204947 1648.090160761048,2108.6528536700534 1646.0,2059.0 C 1647.2099230880256,2012.5165192260067 1642.1272191183014,2007.7742006627734 1646.0,1961.0 C 1642.4065412527627,1907.5116611418343 1646.5489180109876,1909.6083318634678 1646.0,1863.0 C 1646.3426640072146,1816.5302295893414 1645.1945195778162,1811.2034839469093 1646.0,1765.0 C 1643.1955339224062,1718.2358980469492 1647.7065077374382,1714.2576205828618 1646.0,1667.0 C 1649.8257432189275,1616.2905829488086 1646.143593775975,1622.2308189343132 1646.0,1569.0 Z" fill="none" stroke="black" stroke-width="5"/>
  <!-- bottom row foreground panels -->
  <rect data-info="5th panel; bottom row; first panel from the left" data-role="panel" data-z-index="2" fill="#006e93" height="784" id="panel_5" width="713" x="120" y="2403"/>
  <path d="M 120.0,2403.0 C 168.30371779969835,2404.7204736039553 162.45668110735042,2402.481356818737 209.125,2403.0 C 251.68507908700641,2406.9255464308894 254.8687061512826,2400.9957343826563 298.25,2403.0 C 343.8961593234382,2402.5229557968846 340.955931101874,2400.30345894966 387.375,2403.0 C 430.66243048772105,2399.8862023460756 431.7310174122034,2405.953655144457 476.5,2403.0 C 523.4500531875651,2401.289194360148 519.8049496065256,2406.8855647632995 565.625,2403.0 C 606.2091669073894,2403.2798377176623 609.5445599955756,2401.60714351221 654.75,2403.0 C 702.5393627999706,2403.0927883127288 701.4292064601892,2404.097948885068 743.875,2403.0 C 784.0481107460031,2399.2091187819024 792.1657418339813,2402.4610731904395 833.0,2403.0 C 834.7055079229087,2455.4705678760056 836.4538430550929,2447.781671723735 833.0,2501.0 C 835.5274062883103,2547.307252057918 831.0015961373701,2546.8622398914404 833.0,2599.0 C 833.4948391454461,2645.9594254463996 833.618637364417,2644.6967148876843 833.0,2697.0 C 835.4464191621458,2749.798379696604 834.1243582959199,2749.6033021473227 833.0,2795.0 C 836.6937194383397,2845.7595778319073 832.9276024589323,2845.9390920949063 833.0,2893.0 C 831.1099014784376,2941.642259230973 829.8994526087264,2945.8786503505457 833.0,2991.0 C 831.4267640790345,3041.984515352412 830.445903662679,3037.6212309431166 833.0,3089.0 C 836.6208495124001,3136.039904363157 834.5384691141293,3141.2052379579313 833.0,3187.0 C 788.499106850984,3187.000346010193 787.7433782112852,3187.09049746397 743.875,3187.0 C 697.9488684384479,3183.142810434093 700.5332833668685,3190.930359726677 654.75,3187.0 C 609.717605878507,3190.6902571879878 614.5183673434976,3191.331137886421 565.625,3187.0 C 517.8838686446177,3185.209069667048 521.3700984488888,3185.8193041483587 476.5,3187.0 C 436.04199808304065,3185.7028141999663 433.540692609871,3186.046137478772 387.375,3187.0 C 341.5929742788858,3185.675258779866 343.1134120499996,3183.9710603156145 298.25,3187.0 C 253.94545792546276,3187.695937246509 257.9815192309866,3185.779412975393 209.125,3187.0 C 160.53841830521915,3186.833385256335 163.93091053995494,3182.5719492693506 120.0,3187.0 C 123.69400455658948,3135.6186268871697 119.97606122751277,3141.5893950341474 120.0,3089.0 C 117.39978179918786,3037.785321802317 120.6200876346345,3042.1388358123563 120.0,2991.0 C 116.89856680042261,2943.106286264327 122.17177831469083,2941.588286400324 120.0,2893.0 C 123.58654781504409,2843.7368378364313 120.03054527786026,2845.4574210028413 120.0,2795.0 C 117.95703164671728,2747.668231642877 117.53515967896246,2749.520165845445 120.0,2697.0 C 123.1689902863873,2651.2469217958565 117.52478458979064,2647.7579488674755 120.0,2599.0 C 122.32651846289076,2547.8815017775346 124.01915107688205,2548.1743185023975 120.0,2501.0 C 119.22909791491266,2450.7328802477005 116.49616478535013,2454.4000599726614 120.0,2403.0 Z" fill="none" stroke="black" stroke-width="5"/>
  <rect data-info="6th panel; bottom row; second panel from the left" data-role="panel" data-z-index="2" fill="#006e93" height="784" id="panel_6" width="713" x="883" y="2403"/>
  <path d="M 883.0,2403.0 C 929.1417682845569,2398.981069557936 925.5957868705773,2401.059492738826 972.125,2403.0 C 1015.6359895321066,2402.297480619731 1018.7884222415801,2403.8490027612856 1061.25,2403.0 C 1105.9279358661913,2406.4702491948206 1104.6471353725506,2399.2265678340787 1150.375,2403.0 C 1193.7909003441007,2403.458736563018 1197.811304137976,2400.0518069522327 1239.5,2403.0 C 1281.5331419198114,2398.627436246674 1288.0113586068508,2399.639380087739 1328.625,2403.0 C 1371.9999274080462,2405.5324509422753 1370.1125591825469,2399.443009358231 1417.75,2403.0 C 1466.6932676690262,2403.9149076877893 1459.173953338544,2404.1425860621157 1506.875,2403.0 C 1551.4304447056475,2399.972113229049 1549.1453930483713,2400.8021988484884 1596.0,2403.0 C 1595.3269546334823,2451.63976481529 1593.9825520719307,2455.6779949153224 1596.0,2501.0 C 1593.6770591469929,2548.0750785002424 1591.5972564185424,2547.7725206561163 1596.0,2599.0 C 1594.6530081620044,2644.9856086479863 1595.283495100828,2647.8791714406466 1596.0,2697.0 C 1592.014564275206,2745.2145261089654 1597.596364189179,2746.2363821977783 1596.0,2795.0 C 1596.3554234120486,2843.315613309157 1600.2324977763853,2842.9148342963863 1596.0,2893.0 C 1596.6078460164274,2938.5657401925214 1593.1130254591328,2941.2912414795214 1596.0,2991.0 C 1594.3336272175457,3038.1103659323912 1597.6484146718828,3041.5993831646306 1596.0,3089.0 C 1595.928316878919,3141.3483870144355 1593.7023785196914,3140.194330147291 1596.0,3187.0 C 1549.863772192312,3183.880366962738 1555.5169997420226,3189.2128855302803 1506.875,3187.0 C 1466.1854244251535,3191.0697996051367 1461.2211238294155,3188.659355793263 1417.75,3187.0 C 1371.892834748306,3191.292492079323 1377.589343845458,3184.6264623029697 1328.625,3187.0 C 1281.1812906564824,3185.772120992039 1281.5621856283665,3184.792838302284 1239.5,3187.0 C 1193.7164581088578,3186.8056076574458 1191.3896568596767,3187.6927062379923 1150.375,3187.0 C 1105.016645351091,3187.9070081833997 1109.588832906101,3185.1931430762006 1061.25,3187.0 C 1017.4535436937415,3184.4307104135246 1019.2080985002942,3190.964793127251 972.125,3187.0 C 927.2193221372411,3190.146096105302 926.9063911124778,3185.577200282122 883.0,3187.0 C 886.2268133997676,3138.332729367008 884.8957542685614,3134.771001087509 883.0,3089.0 C 885.562354296759,3038.042631882217 882.8559748283267,3037.55380520499 883.0,2991.0 C 882.2935910919331,2939.535131933799 887.3488627530621,2939.6147690352764 883.0,2893.0 C 884.3841903216679,2845.7993420206335 878.6222067753661,2846.608824085159 883.0,2795.0 C 887.0647369324339,2747.7361703224115 886.3116446000422,2749.2038037394013 883.0,2697.0 C 880.6736750614003,2647.445015040558 886.8529265960021,2646.5112027617793 883.0,2599.0 C 878.6857328772254,2550.585090121578 879.0100322299447,2553.311632014397 883.0,2501.0 C 883.7727697745377,2452.326753134365 880.7552772521375,2451.8380628077075 883.0,2403.0 Z" fill="none" stroke="black" stroke-width="5"/>
  <rect data-info="7th panel; bottom row; third panel from the left" data-role="panel" data-z-index="2" fill="#006e93" height="784" id="panel_7" width="713" x="1646" y="2403"/>
  <path d="M 1646.0,2403.0 C 1689.2440040222014,2401.664114869568 1689.346861976912,2401.7646925817317 1735.125,2403.0 C 1776.245292046616,2404.471539641159 1777.2422678450196,2399.971399138678 1824.25,2403.0 C 1870.8433495154816,2405.851755034136 1869.2308679151752,2407.4534094078053 1913.375,2403.0 C 1954.6474508145236,2404.1500790927644 1959.999186865752,2406.993028500266 2002.5,2403.0 C 2051.2144622204232,2400.809066984802 2045.3449709681688,2402.7697092033577 2091.625,2403.0 C 2137.8050173715433,2405.1280461708825 2139.6322402096134,2407.4461525419174 2180.75,2403.0 C 2226.8544353790107,2400.7603856869723 2229.5665491885848,2403.2717949376306 2269.875,2403.0 C 2313.0066673867054,2400.0507982598037 2315.2697026602473,2399.48464794614 2359.0,2403.0 C 2355.7519794703976,2455.162524658255 2355.2755544797333,2456.110210684903 2359.0,2501.0 C 2356.2872537439366,2549.370644819596 2358.27705800607,2545.6473022964465 2359.0,2599.0 C 2362.440371329462,2645.197946910888 2360.5321047719503,2649.069922491176 2359.0,2697.0 C 2357.899945452325,2749.0683150805544 2356.5629059890803,2748.6736089156875 2359.0,2795.0 C 2356.852772458553,2845.7674268874102 2360.060481672822,2842.507090250798 2359.0,2893.0 C 2360.57904825172,2942.691921222634 2360.5370541270204,2942.099054689066 2359.0,2991.0 C 2362.4909945364293,3036.1911053727404 2361.2985240301646,3037.1508608215354 2359.0,3089.0 C 2362.698160516482,3135.1297312745482 2360.3304319496424,3142.286170577026 2359.0,3187.0 C 2318.334061539509,3187.5865747600055 2311.663986327602,3185.040092100552 2269.875,3187.0 C 2221.954176335806,3185.147665195636 2224.7179303907615,3190.535080935192 2180.75,3187.0 C 2135.95569131373,3189.402140961629 2136.3080704598306,3185.963295831899 2091.625,3187.0 C 2045.8725766982955,3188.741944868679 2047.2755073096544,3185.2331985950964 2002.5,3187.0 C 1959.21170242906,3187.623210471928 1961.5466090666903,3187.1554990191053 1913.375,3187.0 C 1870.289879716989,3186.945606464629 1872.196991877222,3189.624204448474 1824.25,3187.0 C 1778.4380353815304,3190.442165177049 1775.4486630877393,3187.4808910399493 1735.125,3187.0 C 1695.030785280907,3190.647583490574 1686.561551125596,3190.1454354413036 1646.0,3187.0 C 1644.908631273568,3138.0169183265516 1648.6216688214893,3137.8523965382124 1646.0,3089.0 C 1646.474955757089,3042.2777510298265 1646.7550525292995,3038.223409535671 1646.0,2991.0 C 1645.0890287892128,2944.6979507798337 1648.9841432251042,2942.7287341990486 1646.0,2893.0 C 1641.5822881558918,2847.7182720858036 1646.6010584532587,2842.2929945054007 1646.0,2795.0 C 1642.1448362310603,2745.0291183741865 1643.6864300631694,2747.3791721253774 1646.0,2697.0 C 1644.1340911808877,2651.069516338728 1642.9227109893768,2650.830907886583 1646.0,2599.0 C 1642.9075937771577,2554.20190317314 1645.7448265652292,2546.837436847172 1646.0,2501.0 C 1649.064528578657,2450.321596762081 1646.9990463330182,2455.7987776247937 1646.0,2403.0 Z" fill="none" stroke="black" stroke-width="5"/>
</svg>