<?xml version="1.0" encoding="utf-8"?>
<!DOCTYPE svg PUBLIC "-//W3C//DTD SVG 1.1//EN" "http://www.w3.org/Graphics/SVG/1.1/DTD/svg11.dtd">
<!--
Color palette:
Colors from dark (background) to light (foreground):
#004c6d for data-z-index="0"
#006e93 for data-z-index="1"
#0093b9 for data-z-index="2"    
#00badd for data-z-index="3"
#00e2ff for data-z-index="4"

* The overall page is of the size 2480 × 3508 pixels (i.e. A4 page at 300 dpi)
* The margin is always 120 pixels (this corresponds to approx. 1cm) to the left and right; this only applies to normal panels, not background panels
* The margin is always 180 pixels (this corresponds to approx. 1.5cm) to the top and bottom; this only applies to background panels
* The gutter (the space between foreground panels, horizontally and vertically) is always 50 pixels
--><svg  id="comic_page" height="3508" version="1.1" viewBox="0, 0, 2480, 3508" width="2480" x="0" xmlns="http://www.w3.org/2000/svg" xmlns:xlink="http://www.w3.org/1999/xlink" y="0">
<desc>
    Page template for a single page with white background and 5 foreground panels. The third panel in the center is a huge one.
  </desc>
<rect data-role="page-background" data-z-index="0" fill="#FFFFFF" height="3508" width="2480" x="0" y="0"/>
<!-- First row of panels -->
<rect data-info="1st panel; top row; second panel from the left" data-role="panel" data-z-index="2" fill="#006e93" height="750" id="panel_1" width="1314" x="120" y="180"/>
<path d="M 120.0,180.0 C 205.83807374685242,174.18929858641272 200.90661847892557,178.59651619102974 284.25,180.0 C 368.39114235735474,178.03289175420448 365.66911227493205,185.5699488398674 448.5,180.0 C 536.2829222648329,176.494166543601 527.5733667289602,174.03941438482926 612.75,180.0 C 692.3171513617714,179.51045660394556 689.0549886354929,186.08181656068385 777.0,180.0 C 861.4313126874898,180.89801176922197 860.0848278098075,176.7135686018891 941.25,180.0 C 1026.5601346611934,184.15294211447357 1027.9320763954838,174.1873832855664 1105.5,180.0 C 1185.3895605255586,178.51417361677613 1191.4108255421113,177.5368531516165 1269.75,180.0 C 1348.9513646888365,181.62901381888366 1357.1324944384298,182.80100206938482 1434.0,180.0 C 1437.083503495643,226.67659733310157 1429.8154537386479,229.63472376942377 1434.0,273.75 C 1431.4734145640962,326.69216563529767 1430.2558139438954,314.63948971711363 1434.0,367.5 C 1436.0578703180975,419.6385618309176 1432.9465652548588,408.61007349265793 1434.0,461.25 C 1434.6864306593704,503.6641103347355 1429.5937368783186,514.188474412088 1434.0,555.0 C 1432.183956987018,602.3401896461291 1437.365377320074,601.9197246717713 1434.0,648.75 C 1435.8102311398438,698.2613940966576 1437.3159460978864,690.1511469083281 1434.0,742.5 C 1430.8976820149621,789.7789742489865 1439.461534611531,795.5015030299622 1434.0,836.25 C 1429.001798486416,879.0751062252154 1427.9287281830834,879.082582779509 1434.0,930.0 C 1348.3418967696005,928.9614890167624 1352.6408261453857,926.5598056915281 1269.75,930.0 C 1184.448778711847,932.0869584853186 1187.2701116324265,931.1763402509031 1105.5,930.0 C 1025.1267524382688,928.8993330937445 1019.6247267072254,927.0685416507805 941.25,930.0 C 855.5047816708585,931.2570855248135 857.4790382600298,935.1546732365008 777.0,930.0 C 693.3312657265714,928.4289410631337 697.9555834848551,926.8735507890893 612.75,930.0 C 533.8870865484274,931.6981033856254 536.5318542698217,936.0882791292239 448.5,930.0 C 367.2264182110904,924.3969559124054 369.6790959001621,925.90117668109 284.25,930.0 C 203.61652216702947,924.5287011429134 207.56288617888748,928.751901980043 120.0,930.0 C 120.19684409578855,886.392236632815 122.72646298445521,881.9241142829234 120.0,836.25 C 119.75731619347096,791.2417152181514 115.78324182726686,785.4722418629948 120.0,742.5 C 118.24450752567346,701.7987988512905 117.57223662170685,695.1900828185351 120.0,648.75 C 121.93012684754146,605.7794800404666 115.90935085778455,601.146901599873 120.0,555.0 C 123.79703053461539,512.2919741951404 125.32989478996258,505.424599950502 120.0,461.25 C 121.46313934713822,413.4124145466442 114.20657607423598,418.86697473109547 120.0,367.5 C 124.07151340229717,315.0783355182369 119.30917067852161,318.19229629330016 120.0,273.75 C 120.14864180961146,229.35002819889084 122.17608238516404,230.51041281296523 120.0,180.0 Z" fill="none" stroke="black" stroke-width="5"/><rect data-info="2nd panel; top row; third panel from the left" data-role="panel" data-z-index="2" fill="#006e93" height="750" id="panel_2" width="876" x="1484" y="180"/>
<path d="M 1484.0,180.0 C 1536.3780267651744,176.30321380389807 1536.7798162377342,181.31106563207706 1593.5,180.0 C 1648.0668388652434,184.77525438631426 1652.0673141139903,178.08999158503644 1703.0,180.0 C 1753.272826074016,182.15257576559938 1761.585430421919,182.2546070034077 1812.5,180.0 C 1870.1014406123618,181.03096897055508 1865.5034173216275,184.5552590460535 1922.0,180.0 C 1974.3025469534593,184.75099363285898 1976.0203150749423,180.82548231459992 2031.5,180.0 C 2087.936766931053,178.3398102309711 2087.297287030758,176.00636217525098 2141.0,180.0 C 2194.810692799557,180.10647462652534 2200.301361450138,182.9752781163232 2250.5,180.0 C 2306.2185573809743,182.7897528137762 2304.343476712806,179.23273646912253 2360.0,180.0 C 2363.8561802752415,228.71544639721282 2360.2099864302445,222.6674252004274 2360.0,273.75 C 2356.5659832735696,318.90257648816004 2360.677543583114,321.92927263153234 2360.0,367.5 C 2360.7329221556474,414.06736316590417 2360.643605993974,413.77902908956906 2360.0,461.25 C 2356.2527015056335,511.7087177313477 2356.5696489407646,504.07002833729354 2360.0,555.0 C 2358.12033382498,597.0218353511799 2359.986945486326,601.1875940815614 2360.0,648.75 C 2363.245928930169,690.8029076891996 2361.595369996916,699.6297759006457 2360.0,742.5 C 2361.2371356807616,789.6310315712982 2358.5901864284538,790.3619729023163 2360.0,836.25 C 2356.1653016294686,885.4605814405805 2360.9080503358027,882.977033157652 2360.0,930.0 C 2302.2583619203065,926.4292032260684 2306.254263522603,932.1386609605476 2250.5,930.0 C 2192.1273582973718,934.2523908403988 2196.040366610479,925.287311012369 2141.0,930.0 C 2083.4600002315565,934.0685129562853 2085.341595996695,931.5482353363469 2031.5,930.0 C 1972.9698301487501,931.4081875782832 1977.255496772869,932.0866407121612 1922.0,930.0 C 1865.745336301293,932.0719464420702 1870.0356023097686,931.0115650235673 1812.5,930.0 C 1757.2702573187153,932.303310131926 1762.2556709181404,931.3750739522645 1703.0,930.0 C 1650.7356877185769,926.0566499812563 1650.5511031656515,933.5628585939425 1593.5,930.0 C 1538.8713520553838,927.274827736483 1538.327429355573,933.1246641184533 1484.0,930.0 C 1486.7503159239611,883.7016440045412 1486.6158629712756,882.0229507435131 1484.0,836.25 C 1487.5105070196967,792.8676986612326 1480.565524212185,785.6551965517936 1484.0,742.5 C 1482.1676926363334,699.5596921498045 1481.2787959853383,692.1993231805031 1484.0,648.75 C 1485.2598343359384,598.6499835887503 1485.686943040781,599.2793455102753 1484.0,555.0 C 1483.7099033123245,505.3695213474101 1485.6961817932777,505.5834089937084 1484.0,461.25 C 1483.6170304208197,411.7535079994044 1488.2994028577716,414.66337425615257 1484.0,367.5 C 1483.8946253073266,316.16903179867217 1485.604202289336,316.2827150746791 1484.0,273.75 C 1480.1165175174178,223.4098153969863 1483.1231763421513,227.15640497847372 1484.0,180.0 Z" fill="none" stroke="black" stroke-width="5"/><!-- Second row of panels: one huge panel -->
<rect data-info="3rd panel; bottom row; first panel from the left" data-role="panel" data-z-index="2" fill="#006e93" height="1550" id="panel_3" width="2240" x="120" y="980"/>
<path d="M 120.0,980.0 C 266.76744803408116,985.9303375265479 258.4444793345689,973.6946507898881 400.0,980.0 C 536.9416070774272,978.1905929432767 534.3443634640539,984.3278421298876 680.0,980.0 C 823.8522689293812,984.6499185252003 827.6308273554672,989.7633729799683 960.0,980.0 C 1098.432676701656,974.5884184874512 1095.7229584621123,983.0353199897324 1240.0,980.0 C 1380.963836704128,975.45449304304 1386.2205374472242,969.0338636159531 1520.0,980.0 C 1670.2781643433252,975.9428689387449 1649.874711449191,990.2591006680719 1800.0,980.0 C 1946.8524769185633,984.7632387283596 1929.6464468939482,991.0524679589299 2080.0,980.0 C 2214.3201926553816,984.3351460179493 2221.4221167445835,974.1356431874577 2360.0,980.0 C 2359.8508221587103,1075.5474310841328 2370.782538192602,1078.2351592292116 2360.0,1173.75 C 2356.2143273023435,1267.9848833130611 2350.7844381478562,1273.7318151425484 2360.0,1367.5 C 2365.6573558326318,1469.7620524749896 2351.2504648145655,1453.203538513616 2360.0,1561.25 C 2371.2619987350595,1657.9785865202007 2349.8744190581533,1649.989716074492 2360.0,1755.0 C 2352.8217671376187,1846.6375888473276 2360.8883044187396,1851.1278460061144 2360.0,1948.75 C 2365.902009687262,2048.496791782175 2353.8022527600306,2035.5033324593105 2360.0,2142.5 C 2354.0788334695762,2248.2305314066693 2351.5049285437713,2246.959765958208 2360.0,2336.25 C 2361.477561885362,2439.7422947082996 2366.354100351263,2429.749398917492 2360.0,2530.0 C 2226.0113284500076,2527.4020889649532 2221.0793248363657,2532.5904350093383 2080.0,2530.0 C 1933.1094044191257,2521.0432838501665 1940.8346573232855,2537.88351832818 1800.0,2530.0 C 1656.339353653356,2538.6559950214487 1667.5010974768622,2536.412730547705 1520.0,2530.0 C 1376.9705539600752,2541.2181586080806 1380.0539393222707,2526.101404510783 1240.0,2530.0 C 1097.1327149018489,2521.3781752920127 1106.2054214979123,2537.879947403796 960.0,2530.0 C 822.5971900569215,2518.9682815051956 811.2018715345896,2540.0485748320534 680.0,2530.0 C 538.551186291599,2526.1076376680385 529.1660667339364,2535.549234126058 400.0,2530.0 C 255.20191984846971,2539.79241962757 265.8248599445196,2530.1236488709574 120.0,2530.0 C 130.1948100214514,2432.601854933792 119.83689710949388,2439.835703732613 120.0,2336.25 C 120.92832014434128,2235.7436292513376 112.68305587143318,2231.3423396799617 120.0,2142.5 C 129.6446957445228,2034.6438397206034 124.04784070999916,2054.086440331153 120.0,1948.75 C 114.488016564323,1847.0434353104404 130.59004872159096,1860.9321053962854 120.0,1755.0 C 121.95871836184524,1652.3785404366365 109.84233916988995,1662.421609718399 120.0,1561.25 C 122.02848956912264,1466.6363913270445 122.92516883863303,1468.32650585468 120.0,1367.5 C 128.3673839988224,1270.490361578441 123.4567565452345,1260.238668751577 120.0,1173.75 C 121.63605225399652,1066.9337906395838 117.87353759434214,1081.2411344290924 120.0,980.0 Z" fill="none" stroke="black" stroke-width="5"/><!-- Third row of panels -->
<rect data-info="4th panel; bottom row; second panel from the left" data-role="panel" data-z-index="2" fill="#006e93" height="750" id="panel_4" width="876" x="120" y="2580"/>
<path d="M 120.0,2580.0 C 170.910614743719,2577.4860415022677 179.60301959018273,2575.635222302627 229.5,2580.0 C 281.98018013050995,2579.5576596973747 286.4508387309853,2583.856336423716 339.0,2580.0 C 392.0656914632982,2584.1732443303245 397.3423478789496,2577.4257766772466 448.5,2580.0 C 499.5452122508442,2579.4532544405297 507.27049970385804,2578.6909124326594 558.0,2580.0 C 613.5464421207763,2580.932566750081 610.9065558361702,2577.7297616819333 667.5,2580.0 C 719.7683850236366,2579.9398594884756 724.2480274303927,2583.6110861579755 777.0,2580.0 C 828.0205503525032,2581.996273526406 835.2350839067176,2575.7251428098302 886.5,2580.0 C 942.0046174202232,2575.1285217234763 941.8033896045174,2584.140922365895 996.0,2580.0 C 992.9798989510467,2623.73458464136 999.1827258810862,2631.264100494536 996.0,2673.75 C 992.2534050483116,2723.412740961005 998.3973000287913,2716.390343227447 996.0,2767.5 C 993.1142651233947,2809.7196134560954 1000.430213491474,2813.8294878885245 996.0,2861.25 C 993.6423279985431,2911.768307370781 991.2102289092094,2909.329735758933 996.0,2955.0 C 993.3954434413722,3005.8085260313787 999.3427830878586,3005.799773376179 996.0,3048.75 C 998.830469407725,3092.8651210176927 994.6557512378556,3093.0354735506603 996.0,3142.5 C 997.8352606938785,3188.8037396558325 999.2940029983753,3193.877964006897 996.0,3236.25 C 994.3152979717682,3284.908380388385 992.9090236741048,3284.8598144915336 996.0,3330.0 C 940.0547518423537,3332.0204267878253 944.9515727979971,3333.318240929767 886.5,3330.0 C 827.0280161103915,3325.413740110084 835.4346784499469,3333.254527669603 777.0,3330.0 C 719.168816940552,3331.478496908777 723.5924814213898,3328.2247214984327 667.5,3330.0 C 611.7184101637663,3331.194303060235 616.8594563930537,3326.249945408468 558.0,3330.0 C 504.5552680591596,3328.451167971579 504.4396838598602,3326.3844849390307 448.5,3330.0 C 394.47161129999444,3332.870326945984 396.92740636193616,3333.1140588816625 339.0,3330.0 C 279.6377210338626,3334.8358428784304 288.50870942707013,3325.347433077643 229.5,3330.0 C 177.144504451247,3329.9062477972234 171.8065021075903,3327.8846822696905 120.0,3330.0 C 118.83723244383553,3285.6583758029396 115.61261029393648,3286.5618561348438 120.0,3236.25 C 119.7880836458522,3186.211504687088 118.88263053227305,3185.6713219036174 120.0,3142.5 C 122.62369245974551,3094.7767690399323 116.3218799792699,3094.3197471612716 120.0,3048.75 C 120.51841268496271,2997.4237653473074 124.11105552685768,3001.0644064146427 120.0,2955.0 C 121.82096744992616,2908.014434321814 124.57739927031962,2911.5357981678353 120.0,2861.25 C 119.5099200585672,2815.4681370698827 124.42392066107242,2815.5113335640094 120.0,2767.5 C 124.25927022943732,2722.181522304471 116.61883550696686,2717.8141667489017 120.0,2673.75 C 122.58578830575784,2630.790482081327 123.3579705288594,2630.9223455033984 120.0,2580.0 Z" fill="none" stroke="black" stroke-width="5"/><rect data-info="5th panel; bottom row; third panel from the left" data-role="panel" data-z-index="2" fill="#006e93" height="750" id="panel_5" width="1314" x="1046" y="2580"/>
<path d="M 1046.0,2580.0 C 1132.0299714176012,2573.9041622101086 1124.7088534239597,2584.4631875474242 1210.25,2580.0 C 1286.9803216095534,2583.4784137327865 1292.5036983873272,2581.1836722165476 1374.5,2580.0 C 1460.7046020181708,2585.2310170616056 1450.5582689137184,2578.048815814361 1538.75,2580.0 C 1617.6277505022579,2584.095422120648 1621.3588590414174,2581.922507017116 1703.0,2580.0 C 1785.0678233669805,2584.042613889612 1789.805799688383,2578.051979216399 1867.25,2580.0 C 1955.4958265314692,2574.084128861381 1952.2654541670747,2577.2404566381274 2031.5,2580.0 C 2111.7306061839695,2586.1486259487037 2115.817352891609,2574.6860929423246 2195.75,2580.0 C 2283.338148038153,2585.024821874302 2273.5139397256194,2579.61479446483 2360.0,2580.0 C 2359.1929758444826,2630.3947837707924 2362.9177670896665,2622.3619582327487 2360.0,2673.75 C 2365.693493289473,2719.1028491129637 2354.2234017565424,2721.009320481682 2360.0,2767.5 C 2361.9277507521574,2809.1322707354366 2365.982345696067,2816.1400908453506 2360.0,2861.25 C 2355.1288899035326,2906.44950762122 2364.0407628533326,2902.960161573186 2360.0,2955.0 C 2361.7572917361294,3003.0898296139385 2362.4232907702253,3005.802892790022 2360.0,3048.75 C 2364.465119742059,3090.6752901237824 2364.91710866896,3090.298377646746 2360.0,3142.5 C 2363.096207558424,3193.1796592561636 2360.600842854973,3183.360132534181 2360.0,3236.25 C 2354.7230561118254,3279.5423790429236 2362.9975630632416,3285.4669589095297 2360.0,3330.0 C 2279.5500575448123,3327.050166109726 2282.4846202245963,3328.8849463556508 2195.75,3330.0 C 2110.871873986098,3332.089871393838 2119.017723209503,3324.9519151864865 2031.5,3330.0 C 1954.056594440986,3330.2935315705427 1946.7289121253377,3329.3210055113495 1867.25,3330.0 C 1779.2941737101153,3334.660833804459 1789.1904949353016,3326.871182211816 1703.0,3330.0 C 1615.0222771121917,3327.356533117637 1616.2434915053473,3323.97526754882 1538.75,3330.0 C 1454.2134778668305,3334.704109092886 1461.934441645473,3326.3130246402084 1374.5,3330.0 C 1297.1636444686237,3327.548234371854 1297.519836054349,3330.397556507841 1210.25,3330.0 C 1132.5459818417266,3327.6063312752526 1128.9061754363922,3330.2251230305756 1046.0,3330.0 C 1040.0481439055518,3286.902654509727 1051.0503036115897,3288.680285294842 1046.0,3236.25 C 1045.1041652586082,3195.036282938234 1043.382037385425,3188.959879636041 1046.0,3142.5 C 1045.5835658832743,3097.6337736493483 1044.3797429108606,3099.697147504546 1046.0,3048.75 C 1045.17716732684,2998.088516439062 1041.392772610182,2998.0222795673694 1046.0,2955.0 C 1050.6590068714038,2905.45909854876 1042.4651527172782,2904.581195526693 1046.0,2861.25 C 1046.9926873232134,2810.2795453645163 1050.9702216009464,2812.133141908774 1046.0,2767.5 C 1047.5232280701007,2716.6817347760875 1044.7529994801896,2715.526889860676 1046.0,2673.75 C 1045.1375711327646,2632.3247726600544 1048.6341752795822,2624.0784981339384 1046.0,2580.0 Z" fill="none" stroke="black" stroke-width="5"/></svg>