<?xml version="1.0" encoding="utf-8"?>
<!DOCTYPE svg PUBLIC "-//W3C//DTD SVG 1.1//EN" "http://www.w3.org/Graphics/SVG/1.1/DTD/svg11.dtd">
<!--
Color palette:
Colors from dark (background) to light (foreground):
#004c6d for data-z-index="0"
#006e93 for data-z-index="1"
#0093b9 for data-z-index="2"    
#00badd for data-z-index="3"
#00e2ff for data-z-index="4"

* The overall page is of the size 2480 × 3508 pixels (i.e. A4 page at 300 dpi)
* The margin is always 120 pixels (this corresponds to approx. 1cm) to the left and right; this only applies to normal panels, not background panels
* The margin is always 180 pixels (this corresponds to approx. 1.5cm) to the top and bottom; this only applies to background panels
* The gutter (the space between foreground panels, horizontally and vertically) is always 50 pixels
--><svg id="comic_page" height="3508" version="1.1" viewBox="0, 0, 2480, 3508" width="2480" x="0" xmlns="http://www.w3.org/2000/svg" xmlns:xlink="http://www.w3.org/1999/xlink" y="0">
<desc>
    Page template for a single page with white background and 8 normal foreground panels.
  </desc>
<rect data-role="page-background" data-z-index="0" fill="#FFFFFF" height="3508" width="2480" x="0" y="0"/>
<!-- top half of page: 3 foreground panels; the first panel has height of half the page, the second and third panels have height of one quarter of the page each -->
<rect data-info="1st panel; top row; first panel from the left" data-role="panel" data-z-index="2" fill="#006e93" height="1524" id="panel_1" width="876" x="120" y="180"/>
<path d="M 120.0,180.0 C 169.5018303449447,185.38910937836957 178.72643526915667,181.44629769516752 229.5,180.0 C 277.08194804702697,179.41861797361432 288.58270437896175,182.94292820423573 339.0,180.0 C 386.83152110548,186.9919921670717 391.6937370833594,176.0933812744393 448.5,180.0 C 500.6531201255362,185.79395304772135 507.0744501651888,181.87007502866584 558.0,180.0 C 608.7909362704274,182.04467876558817 612.1213789312658,176.18206946510335 667.5,180.0 C 721.3045545668983,174.33535898588804 724.1859321648819,182.11948341153558 777.0,180.0 C 827.7532382261213,183.73380414623097 831.3835817152112,173.39339262286418 886.5,180.0 C 940.8758212123939,174.12790405364956 944.1909773080122,184.25463045175064 996.0,180.0 C 993.7672558721107,268.66995669791714 998.2543654599126,272.40844340559414 996.0,370.5 C 993.5219450023634,460.62040989267246 1000.9297192775223,468.4784464061145 996.0,561.0 C 990.9160589200167,660.4667146483589 997.7945542866845,650.0970541933367 996.0,751.5 C 1001.4928010608902,839.9171340825511 995.0854892961138,849.289782343828 996.0,942.0 C 991.7209123348485,1043.7047513546988 998.7238187304376,1030.7300013851514 996.0,1132.5 C 995.4629738647493,1226.4220917293908 1000.1328380759902,1229.3944372637634 996.0,1323.0 C 999.7475258334837,1423.715744025925 998.6188127076325,1415.244599178801 996.0,1513.5 C 996.4220991839499,1613.1854791179849 998.4806022327177,1611.1316621816623 996.0,1704.0 C 941.3931059012026,1708.2647679206166 946.790582302423,1698.131606229601 886.5,1704.0 C 829.3952334567045,1707.4458786743746 831.5593861668052,1710.0977437759504 777.0,1704.0 C 719.6395676458193,1701.8957980170442 722.4682676461972,1700.392493795965 667.5,1704.0 C 613.3981169521383,1701.829908709055 613.1988028479936,1708.5058139049586 558.0,1704.0 C 500.5384969063118,1700.7316102141942 498.41497342846384,1705.4514454881767 448.5,1704.0 C 388.656794815489,1703.3543176507833 392.80705892630357,1700.168108214292 339.0,1704.0 C 280.7167615001748,1709.2788086376859 280.67578896026055,1699.420820978349 229.5,1704.0 C 181.0093461974953,1702.631655295109 178.21089563804472,1697.9606996852742 120.0,1704.0 C 117.71774116266633,1612.5751101576755 119.32991983823585,1606.1185593365662 120.0,1513.5 C 120.90900584852989,1414.2119030335364 121.62262107636448,1412.232935612606 120.0,1323.0 C 118.67838131077326,1225.0160391146578 121.52447875431773,1220.90811496915 120.0,1132.5 C 119.68828166985278,1030.1674414141382 119.83057469128816,1037.0256781565135 120.0,942.0 C 120.52628919186583,842.6372243593127 126.45493556780345,852.8297088760723 120.0,751.5 C 116.56659217677526,660.8117777839317 122.20407932445018,654.4774736520843 120.0,561.0 C 115.68464527149476,467.2341709966618 126.99793416103216,471.22522389972283 120.0,370.5 C 125.99936224274019,270.43607699713726 126.79189520358392,273.72413042140136 120.0,180.0 Z" fill="none" stroke="black" stroke-width="5"/>
<rect data-info="2nd panel; top row; second panel from the left" data-role="panel" data-z-index="2" fill="#006e93" height="737" id="panel_2" width="1314" x="1046" y="180"/>
<path d="M 1046.0,180.0 C 1128.6441083562195,178.33587704038044 1133.470350121576,180.90834175817025 1210.25,180.0 C 1288.8118921503487,181.8245575534532 1288.4789562901915,177.54347026406086 1374.5,180.0 C 1455.9128217330635,182.0670404419316 1455.1603301630832,176.78498268735197 1538.75,180.0 C 1625.1044367083523,181.820481377876 1618.149989327347,181.37716833742505 1703.0,180.0 C 1790.5492761964513,177.7067181257187 1783.9299950609864,181.14263164183203 1867.25,180.0 C 1950.9155780248616,176.69354921070524 1951.1289210054083,175.68220363354783 2031.5,180.0 C 2109.795132440933,179.0632962468591 2112.1515953862886,177.42026422946805 2195.75,180.0 C 2279.2195677309055,184.52498747919913 2279.8121820625875,174.76372292353216 2360.0,180.0 C 2359.242089730873,231.06835568404696 2363.782756080374,224.30713697977885 2360.0,272.125 C 2356.4384509980882,323.47997024684196 2355.2651679131236,314.0478961844869 2360.0,364.25 C 2363.1022122380036,416.45013487842823 2362.9757002754027,405.54104234279515 2360.0,456.375 C 2358.801843974077,508.444982159446 2361.7282745877396,507.63432411426277 2360.0,548.5 C 2361.7195428653495,594.5450721381175 2363.601100841618,596.7491575900981 2360.0,640.625 C 2358.7703259012815,682.0600050958252 2363.0158055672377,685.2013371569553 2360.0,732.75 C 2361.2549799194944,783.4025546180269 2361.886229694039,779.5834755806103 2360.0,824.875 C 2354.723839587862,872.9104215637954 2359.607596119265,870.3443013821623 2360.0,917.0 C 2275.7286541281187,913.2442778680461 2273.90592580968,921.3096153903443 2195.75,917.0 C 2110.1902514813946,921.7133865752937 2114.7338303894626,922.0733632605373 2031.5,917.0 C 1948.1570350583663,919.3937881704437 1952.136446713347,915.1978576546884 1867.25,917.0 C 1779.3850428727708,920.0569926895026 1790.8806352085494,912.0129146871197 1703.0,917.0 C 1625.158877436287,915.7251972379707 1615.6691145928746,921.7101681814505 1538.75,917.0 C 1461.171173075975,915.8724708582293 1452.5007154101065,911.4169085429756 1374.5,917.0 C 1294.677571900225,916.0347286297672 1289.1910311365823,920.2928401914276 1210.25,917.0 C 1122.714012427915,915.5175017768728 1127.1543590772671,916.0839462086818 1046.0,917.0 C 1043.4007816263681,864.8015207285106 1041.7432829998268,865.6136376837328 1046.0,824.875 C 1045.9634667222024,783.027659794325 1048.630810527807,780.9443794279443 1046.0,732.75 C 1048.724456514391,686.0261424144851 1043.9073901355728,685.7972039897718 1046.0,640.625 C 1049.654559844498,592.5376359639386 1044.786819218066,588.9534542818927 1046.0,548.5 C 1050.470258269359,497.68848341566326 1049.5988645757259,504.79640778534343 1046.0,456.375 C 1050.2963443676445,415.4664017863339 1049.8750168745269,410.43829988018217 1046.0,364.25 C 1048.539769559764,319.37760973565855 1042.7410949344198,312.762792979958 1046.0,272.125 C 1046.642985518428,220.8333859757158 1044.8027545803984,222.54524951490322 1046.0,180.0 Z" fill="none" stroke="black" stroke-width="5"/>
<rect data-info="3rd panel; top row; third panel from the left" data-role="panel" data-z-index="2" fill="#006e93" height="737" id="panel_3" width="1314" x="1046" y="964"/>
<path d="M 1046.0,964.0 C 1132.6578902226859,962.2464379720038 1129.7925211206302,961.9670636593706 1210.25,964.0 C 1293.241318654642,965.6298476181263 1288.6977315387953,966.5656566703227 1374.5,964.0 C 1451.7618932933435,966.6971793552184 1454.8012562697027,966.4839586684471 1538.75,964.0 C 1615.8135002736954,964.4587389993733 1626.4368936493006,968.207022682442 1703.0,964.0 C 1788.0961066565542,962.1425658156747 1789.8552055761174,961.5411702949175 1867.25,964.0 C 1951.7309046592095,957.8912766846051 1945.9506121672437,964.2365241942401 2031.5,964.0 C 2112.759188299485,968.8516473548251 2108.2682776213787,967.411041847717 2195.75,964.0 C 2276.7381594219273,965.7076554147479 2281.796904781077,967.9159334995945 2360.0,964.0 C 2359.0845171351502,1010.0297330290807 2357.4935849527965,1007.1532319472082 2360.0,1056.125 C 2360.316781323413,1102.3267238291298 2362.7045001275146,1108.270287988841 2360.0,1148.25 C 2359.3280869602017,1189.3512397987424 2366.059139645976,1188.8450528861865 2360.0,1240.375 C 2361.3641583351614,1292.147843060421 2362.963412962785,1281.0831353407145 2360.0,1332.5 C 2356.0256313076957,1383.4307522334757 2356.8377781543522,1381.1930267033283 2360.0,1424.625 C 2360.0137021594855,1474.3857588024657 2355.2819861699854,1475.5837191869102 2360.0,1516.75 C 2361.925016975876,1564.9797972439446 2362.3835300292544,1560.3555064289374 2360.0,1608.875 C 2356.7495746227582,1650.0078227445113 2359.7866136859316,1651.2469072611593 2360.0,1701.0 C 2274.375278553712,1698.4191053822663 2280.978869556175,1700.3135762371896 2195.75,1701.0 C 2116.6868623162,1704.8910735467166 2110.03387371074,1704.3169744371269 2031.5,1701.0 C 1951.326775567818,1704.7095595953076 1953.423096466903,1699.5298609963218 1867.25,1701.0 C 1784.9531826687605,1702.3169094825762 1786.2963885908725,1703.3680825405856 1703.0,1701.0 C 1617.6651825828508,1695.1393407260675 1621.1582917686544,1695.1766245926833 1538.75,1701.0 C 1461.6596137421477,1703.17704212388 1458.5714265421436,1705.0575349466308 1374.5,1701.0 C 1294.5324535477089,1701.8269518210682 1297.844023855867,1702.6291875928425 1210.25,1701.0 C 1132.0555595167937,1698.176363858601 1129.1900581530106,1706.6183040438139 1046.0,1701.0 C 1040.5491447346567,1652.616039095673 1051.5887336914282,1656.0280910149165 1046.0,1608.875 C 1040.56780327539,1563.4033929066345 1050.7011810423514,1565.8073889957277 1046.0,1516.75 C 1049.3269479036187,1467.8649531883018 1051.0800926729783,1466.411877001858 1046.0,1424.625 C 1040.5466227739084,1375.731889026762 1044.256468673154,1379.7554737570981 1046.0,1332.5 C 1044.5715600700644,1286.471190703509 1051.65230633489,1292.2025117169705 1046.0,1240.375 C 1044.5804518221162,1197.4014357552248 1045.6565958643425,1188.497303190265 1046.0,1148.25 C 1051.0382619719603,1107.786468052644 1050.249768112776,1103.8132889051835 1046.0,1056.125 C 1044.7991885944261,1013.241777976646 1049.8388611896708,1015.6546125699831 1046.0,964.0 Z" fill="none" stroke="black" stroke-width="5"/><!-- second row of panels -->
<rect data-info="5th panel; bottom row; first panel from the left" data-role="panel" data-z-index="2" fill="#006e93" height="762" id="panel_5" width="713" x="120" y="1754"/>
<path d="M 120.0,1754.0 C 163.19216170169292,1753.2969289580294 168.80063905759096,1758.3803730177467 209.125,1754.0 C 257.95478801629156,1753.0874381724868 252.48145363407406,1753.425908625856 298.25,1754.0 C 342.87090844401166,1756.281993374616 342.24482708899274,1753.5815483342813 387.375,1754.0 C 432.8478348889415,1753.0480127612147 431.0537383327398,1757.413959331178 476.5,1754.0 C 519.1510432543301,1756.7458283443602 519.840073630253,1754.5517686218452 565.625,1754.0 C 612.7747205444516,1753.9175264160383 612.3496614802518,1754.6572775069242 654.75,1754.0 C 696.4847409892392,1755.1434662218664 698.3886889999608,1754.2254573663786 743.875,1754.0 C 788.6124263303585,1753.3828514123627 790.3019096622031,1753.0498152470939 833.0,1754.0 C 830.6595668501184,1797.8695832967724 829.8887275967884,1801.9490299723896 833.0,1849.25 C 831.111992263044,1897.2593387934392 836.212571835239,1893.291870818844 833.0,1944.5 C 830.435792011555,1995.7220410031712 833.7140272668091,1988.6616695546193 833.0,2039.75 C 831.9798190685358,2086.6356291764523 829.2609626955406,2091.7242126514902 833.0,2135.0 C 836.8399658871034,2185.749729451156 834.0893786846362,2179.3503578093673 833.0,2230.25 C 828.8783908815755,2280.1669595578005 834.810673885502,2280.718142680109 833.0,2325.5 C 832.721285178861,2369.7560352547775 831.1067322627407,2373.8284835329296 833.0,2420.75 C 834.0242763713392,2468.0751149367265 829.4500269134255,2466.875794987906 833.0,2516.0 C 788.8409792765208,2515.756650204857 787.1686112492274,2512.831485200458 743.875,2516.0 C 701.0377681020789,2515.934492568625 697.1060590556141,2516.416907562604 654.75,2516.0 C 606.6947861098863,2516.251572039853 613.4912013559677,2518.2183924379397 565.625,2516.0 C 519.9594808461346,2516.222781784119 520.5685158500996,2511.9254039614134 476.5,2516.0 C 431.04725641999386,2519.9883437023423 433.2630251375383,2519.8875353224103 387.375,2516.0 C 344.0625169702077,2516.9510045071647 344.3322687377501,2511.847440146843 298.25,2516.0 C 255.16391654850298,2513.989150451377 250.59790345001164,2512.7957909142237 209.125,2516.0 C 163.3719959605781,2515.4864461037764 162.22007620171192,2518.005005946229 120.0,2516.0 C 120.16857897634223,2464.9472258582036 123.96818481175028,2470.1173436380304 120.0,2420.75 C 122.98195468541266,2371.1740572678054 116.41410918962492,2374.8040410219505 120.0,2325.5 C 122.41637774589124,2275.179652408027 116.72921878315707,2275.886536942712 120.0,2230.25 C 123.53952594906988,2182.903701471556 123.65631519613035,2182.2863716170923 120.0,2135.0 C 120.90464003971027,2089.1618310275862 123.84223742629761,2089.8214076763907 120.0,2039.75 C 120.08806220781887,1989.1354249114088 117.85340867387008,1988.2906428805823 120.0,1944.5 C 117.45232348793081,1893.0085471483621 122.43659662389732,1898.9549298966604 120.0,1849.25 C 115.65201023877991,1800.2286001405464 118.37696926714632,1798.0980983974462 120.0,1754.0 Z" fill="none" stroke="black" stroke-width="5"/>
<rect data-info="6th panel; bottom row; second panel from the left" data-role="panel" data-z-index="2" fill="#006e93" height="762" id="panel_6" width="713" x="883" y="1754"/>
<path d="M 883.0,1754.0 C 926.7479105136473,1757.6318274957114 923.9326801091355,1750.5142348834877 972.125,1754.0 C 1016.110729810937,1754.2454075487337 1012.4799445687416,1751.6152749354467 1061.25,1754.0 C 1105.074163436564,1749.987504583976 1109.6062776490858,1753.6173644321636 1150.375,1754.0 C 1194.8868759859229,1758.009394964038 1194.3589681236658,1750.5089648010087 1239.5,1754.0 C 1288.351012671987,1749.8060949258495 1283.1849159040946,1753.8031950884313 1328.625,1754.0 C 1371.9304295457287,1749.6523783863558 1373.373763387255,1757.6083369069484 1417.75,1754.0 C 1462.6078458503596,1752.5543245725364 1461.87579597747,1751.5448276204797 1506.875,1754.0 C 1547.992734363177,1757.911519275779 1553.126536053465,1753.6851389735025 1596.0,1754.0 C 1595.062580641289,1799.521070433148 1599.2282880755074,1803.1837569688153 1596.0,1849.25 C 1595.621137026867,1894.468504347804 1592.7147597509424,1896.07917528584 1596.0,1944.5 C 1593.6924082332437,1993.6324363905735 1595.7659142925502,1992.6681335099254 1596.0,2039.75 C 1598.1480623922293,2091.7846413351785 1592.2919218744385,2091.499084949992 1596.0,2135.0 C 1595.996628172179,2184.305308924658 1593.2890417684998,2181.3600229354465 1596.0,2230.25 C 1599.3943324594854,2279.4833795714994 1593.5409617292216,2282.107088068706 1596.0,2325.5 C 1597.3287191916884,2374.313284814843 1596.1040364239523,2377.540162846207 1596.0,2420.75 C 1592.1931795282678,2465.708469958812 1599.0318695894875,2466.574108496248 1596.0,2516.0 C 1548.2714212030005,2519.839734530137 1552.8014343889356,2516.9904277885494 1506.875,2516.0 C 1459.4195929242073,2512.5169051094235 1463.2024022875098,2518.6264782093876 1417.75,2516.0 C 1369.4039486761744,2517.6183834421986 1370.2719496899138,2516.5093340114126 1328.625,2516.0 C 1283.0994346290304,2519.1486147205014 1286.2607701603417,2515.1496971461193 1239.5,2516.0 C 1198.0604388644917,2513.3291780784957 1193.7955327880954,2519.244325768118 1150.375,2516.0 C 1104.9737481296625,2512.8331901270585 1101.3896686489886,2517.3543350393347 1061.25,2516.0 C 1019.374116243858,2518.7764310593143 1014.4639704651231,2513.216122585358 972.125,2516.0 C 923.4191855109034,2513.099685729169 931.6239646744687,2516.7970742402354 883.0,2516.0 C 882.1440380080569,2465.886475190844 881.100645416436,2471.163912304612 883.0,2420.75 C 886.391072831541,2368.784858898581 881.7705023483891,2373.4621541369866 883.0,2325.5 C 887.3078471337944,2277.108011367488 883.8972196331573,2281.6401213913105 883.0,2230.25 C 884.8115367063269,2180.287659931555 879.5213707342383,2184.043028313235 883.0,2135.0 C 880.2817819163228,2089.2298099843433 882.8136686740376,2086.295094951897 883.0,2039.75 C 887.2420424783616,1990.398389816911 881.1463567729719,1993.0097115374663 883.0,1944.5 C 879.1033918697292,1896.8772039596254 880.7713770557983,1895.5298867845756 883.0,1849.25 C 881.9643586473643,1800.0615683913038 882.6609939113289,1798.6274109903168 883.0,1754.0 Z" fill="none" stroke="black" stroke-width="5"/>
<rect data-info="7th panel; bottom row; third panel from the left" data-role="panel" data-z-index="2" fill="#006e93" height="762" id="panel_7" width="713" x="1646" y="1754"/>
<path d="M 1646.0,1754.0 C 1692.5488587989814,1756.5459274835036 1693.4646616459931,1751.7006967709237 1735.125,1754.0 C 1775.9191120760931,1751.6067895086017 1781.539525937116,1750.0499940081736 1824.25,1754.0 C 1865.3066284877511,1758.0151481934813 1871.2126716432183,1755.10502921323 1913.375,1754.0 C 1961.1758718565313,1756.3506113104745 1956.0088983951962,1757.5082619396403 2002.5,1754.0 C 2044.7715758702873,1757.6812909786581 2047.722475145379,1750.663035780508 2091.625,1754.0 C 2133.4825944682384,1750.4489168219493 2135.976968401059,1755.7779889195742 2180.75,1754.0 C 2228.676326101134,1751.9957360752621 2223.2641058945624,1751.2955543770172 2269.875,1754.0 C 2311.0368638495115,1752.3335100582353 2317.286243979507,1756.1425420172388 2359.0,1754.0 C 2362.3172968188883,1797.730875007603 2357.96068485381,1804.9705552300477 2359.0,1849.25 C 2358.656633216597,1894.3674615159428 2361.7739904751043,1895.58538028803 2359.0,1944.5 C 2357.465155620986,1988.2910997873273 2360.0717488969913,1991.2526480097067 2359.0,2039.75 C 2358.394015979484,2085.8139851229867 2358.2440584231426,2083.0566110874825 2359.0,2135.0 C 2355.2743865885036,2179.1574086799064 2362.3827855009977,2178.9213234817616 2359.0,2230.25 C 2360.9201125768564,2278.5337368470455 2355.941939268092,2273.7980461512793 2359.0,2325.5 C 2357.103582781665,2372.954445581457 2360.402115827982,2372.29813169612 2359.0,2420.75 C 2360.826065157835,2471.862945181347 2358.6967521332676,2468.6318580978664 2359.0,2516.0 C 2312.612882545613,2516.2288631543142 2313.517530099022,2511.929881207606 2269.875,2516.0 C 2226.676724374565,2514.765119485352 2225.1793705876084,2511.7785927232017 2180.75,2516.0 C 2139.2569793265043,2514.7827863453826 2135.185118394651,2518.9035255970484 2091.625,2516.0 C 2049.1327299747804,2517.338417936688 2051.0250844375355,2514.74898801256 2002.5,2516.0 C 1954.3732623271499,2518.2947274934395 1956.436889197957,2519.5416850975334 1913.375,2516.0 C 1872.1822779274537,2513.775696251981 1868.6734955570373,2515.9742717205195 1824.25,2516.0 C 1781.809544446792,2514.0890941781954 1776.6465595909483,2519.618486380099 1735.125,2516.0 C 1689.0505203228045,2520.127685553769 1692.4558748955724,2519.310267465202 1646.0,2516.0 C 1644.139848227481,2471.226689046314 1644.3964326110229,2471.2527671266207 1646.0,2420.75 C 1648.2210400999027,2372.7619672456817 1647.0153364945822,2372.353567737056 1646.0,2325.5 C 1641.6866480917931,2281.252707439971 1642.000877380514,2274.5608486250917 1646.0,2230.25 C 1644.2874504098113,2179.4654122246284 1642.9137158765864,2178.9644596732733 1646.0,2135.0 C 1644.7226327083738,2089.45723284186 1644.9147741958975,2085.66620593555 1646.0,2039.75 C 1649.1373285280163,1996.1837017585053 1645.3736398395172,1990.8484196756024 1646.0,1944.5 C 1648.7039709155813,1898.5809245413168 1648.6998574628383,1896.8684049601754 1646.0,1849.25 C 1644.4861899699692,1797.2992131743529 1646.2338365281755,1800.4633286905525 1646.0,1754.0 Z" fill="none" stroke="black" stroke-width="5"/><!-- third row of panels -->
<rect data-info="8th panel; bottom row; first panel from the left" data-role="panel" data-z-index="2" fill="#006e93" height="762" id="panel_8" width="1095" x="120" y="2566"/>
<path d="M 120.0,2566.0 C 193.51437122488161,2562.023663140444 190.15168072610123,2563.9162983192437 256.875,2566.0 C 319.93635774451633,2567.1854562084845 329.5287403157759,2562.322486698462 393.75,2566.0 C 464.5383430739031,2564.9745483118595 466.1627743048776,2560.436387731882 530.625,2566.0 C 598.6403299080351,2565.8697983534203 600.3348571340306,2569.965805092501 667.5,2566.0 C 738.4157794624824,2564.617570928992 731.1471458071205,2567.447889286782 804.375,2566.0 C 877.0943511985575,2570.844130272147 868.2336164681776,2571.1956706368815 941.25,2566.0 C 1010.9536898290706,2566.227462170584 1008.8615947828239,2565.936687152893 1078.125,2566.0 C 1149.8896596804811,2570.0587854530254 1143.2794772749614,2560.5637315134513 1215.0,2566.0 C 1210.6689591659713,2610.20726591461 1214.896268385007,2612.0316917521127 1215.0,2661.25 C 1210.9425478138899,2713.387627523039 1214.884029799304,2713.3690529341015 1215.0,2756.5 C 1213.3444382457405,2799.740101805873 1218.313177973315,2803.0159893806235 1215.0,2851.75 C 1215.376074199783,2902.561762667178 1210.4063602553856,2898.480978609629 1215.0,2947.0 C 1218.9890909173,2995.4624457770437 1217.6143072077095,2989.8859688276257 1215.0,3042.25 C 1219.8038799678613,3093.1910966480214 1215.5953912659177,3085.4138225608053 1215.0,3137.5 C 1212.8460453830817,3186.2614104382296 1217.5458047703821,3184.127015141195 1215.0,3232.75 C 1210.5093885236865,3280.671302929816 1216.2715703014665,3277.899523131649 1215.0,3328.0 C 1145.8579120504187,3333.2992523207135 1141.061862568952,3324.9114568917416 1078.125,3328.0 C 1005.5608328110002,3331.1708307227727 1011.4771805134325,3324.7746681756826 941.25,3328.0 C 875.8126472722784,3332.769021698986 870.1245527022501,3327.9320644185173 804.375,3328.0 C 731.9986261118008,3327.876028369974 735.7289743893784,3331.9256091966454 667.5,3328.0 C 601.3502959000447,3323.8988863204104 601.3890343354085,3332.29984544515 530.625,3328.0 C 462.03268473658136,3323.28704997777 466.47348206599185,3327.9790505560045 393.75,3328.0 C 321.4792843454216,3325.3925972809534 326.40090468409744,3325.9961416715632 256.875,3328.0 C 189.48289922755123,3325.7143454197276 192.60320158713418,3333.569993974295 120.0,3328.0 C 124.0633534165838,3282.241255929713 122.10705900237782,3283.466055524676 120.0,3232.75 C 118.95883042850474,3188.691282000232 114.93339598291132,3182.662309736325 120.0,3137.5 C 124.54489214130258,3087.5661858262483 119.85788972943824,3089.3697751671307 120.0,3042.25 C 121.8643102973372,2998.57516071253 114.85911363711703,2994.715579981045 120.0,2947.0 C 125.23409903901569,2897.9716262883394 122.89774076375043,2896.277517745669 120.0,2851.75 C 122.27844802967229,2803.9228934741845 122.78230538626508,2806.9672486076947 120.0,2756.5 C 120.25681710997424,2709.4628554172405 116.69731395104118,2707.5928012890017 120.0,2661.25 C 120.37878757076966,2608.9151593755355 117.84528976987573,2616.1687046291886 120.0,2566.0 Z" fill="none" stroke="black" stroke-width="5"/>
<rect data-info="9th panel; bottom row; second panel from the left" data-role="panel" data-z-index="2" fill="#006e93" height="762" id="panel_9" width="1095" x="1265" y="2566"/>
<path d="M 1265.0,2566.0 C 1330.8508877465322,2566.5225581940563 1333.477407884876,2565.006411271984 1401.875,2566.0 C 1473.0051666749653,2562.717333586912 1474.210827643212,2565.934603124117 1538.75,2566.0 C 1605.765527934138,2570.9982863309265 1610.9745235571484,2566.8055977758936 1675.625,2566.0 C 1739.0438215260697,2566.7377735754885 1747.001164888796,2564.553863272352 1812.5,2566.0 C 1877.0859294215804,2563.23566754816 1877.227232084041,2569.5015057525475 1949.375,2566.0 C 2012.33613154355,2561.69461448376 2020.0551794595885,2560.6116373408263 2086.25,2566.0 C 2158.6998875778563,2562.361532465671 2155.9364803134267,2568.029785481833 2223.125,2566.0 C 2286.768673733495,2567.9680529869815 2289.7694360367927,2568.124281655273 2360.0,2566.0 C 2360.3591481927133,2612.3816874790664 2354.9430455627307,2616.602845849166 2360.0,2661.25 C 2355.6477804077826,2711.666511782447 2363.908977412738,2713.8695959456063 2360.0,2756.5 C 2355.296448287157,2799.749929309492 2358.514288050882,2805.019519658375 2360.0,2851.75 C 2362.764006458087,2901.0389988983898 2360.4779529710013,2893.8862485578493 2360.0,2947.0 C 2362.925247518585,2998.911180370969 2362.2612487250526,2994.6318280710166 2360.0,3042.25 C 2356.74760092143,3088.006106199665 2364.83124961735,3093.7692943585803 2360.0,3137.5 C 2360.420691318011,3181.8579710208874 2355.625524263382,3186.7468590892267 2360.0,3232.75 C 2363.409318409318,3276.7790022348768 2354.6205843677376,3275.726912181492 2360.0,3328.0 C 2293.59662559575,3323.003481013452 2293.926532906585,3325.328413811377 2223.125,3328.0 C 2155.423775964237,3329.731984697539 2152.9982339678672,3325.253473096733 2086.25,3328.0 C 2017.4417641119455,3327.546732108108 2022.4789121120396,3323.0389008132115 1949.375,3328.0 C 1882.602254849249,3330.3464535412077 1883.317808153017,3325.631950069232 1812.5,3328.0 C 1747.84142071849,3330.6538178745805 1744.5689122725844,3329.2038326092675 1675.625,3328.0 C 1606.3157672856194,3332.715762982998 1605.951804598353,3331.9521127432404 1538.75,3328.0 C 1467.492789106351,3324.2602127011455 1470.7973974449321,3324.035243988084 1401.875,3328.0 C 1330.5002216638986,3325.213979727006 1329.0977171395568,3331.049097071492 1265.0,3328.0 C 1261.8311155124247,3283.699681264822 1259.9171002472203,3275.684704761636 1265.0,3232.75 C 1263.4750631899083,3181.390009800529 1268.5950922610648,3182.7738695097496 1265.0,3137.5 C 1269.5260765616295,3089.070048424207 1268.2530681753624,3086.2592875077817 1265.0,3042.25 C 1265.2838145516143,2993.633624530574 1260.1406858918504,2999.1661330091947 1265.0,2947.0 C 1270.249417756944,2895.1109234353694 1262.9598334036077,2899.952732545311 1265.0,2851.75 C 1261.4086620839,2800.93857421145 1261.7662713304328,2806.308598602795 1265.0,2756.5 C 1270.097147896438,2705.4939867791086 1267.8383470757908,2711.5883380760097 1265.0,2661.25 C 1261.5729564026835,2612.830058401221 1263.7668191844914,2610.9109146707137 1265.0,2566.0 Z" fill="none" stroke="black" stroke-width="5"/></svg>